;PTH Drill file created by EasyEDA 
M48
;Holesize 1 = 0.035 INCH
T01C0.035
;Holesize 2 = 0.032 INCH
T02C0.032
;Holesize 3 = 0.040 INCH
T03C0.040
;Holesize 4 = 0.035 INCH
T04C0.035
;Holesize 5 = 0.035 INCH
T05C0.035
;Holesize 6 = 0.118 INCH
T06C0.118
;Holesize 7 = 0.012 INCH
T07C0.012
INCH,00.0000
%
G05
G90
T01
X013000Y034900
X012211Y034900
T02
X009000Y033800
X019400Y028100
X003100Y024100
X018800Y037400
X014100Y025700
X014100Y026700
X014100Y027700
X014100Y028700
X022400Y031100
X022400Y030100
X022400Y022500
X022400Y021500
T03
X012100Y036700
X013100Y036700
X012700Y020800
X012700Y021800
X012700Y022800
X016800Y020800
X016800Y021800
X016800Y022800
X018300Y020800
X018300Y021800
X018300Y022800
X011200Y020800
X011200Y021800
X011200Y022800
X009700Y020800
X009700Y021800
X009700Y022800
X027000Y032100
X027000Y033100
X027000Y034100
X027000Y035100
X027000Y023500
X027000Y024500
X027000Y025500
X027000Y026500
X002200Y029500
X002200Y028500
X002200Y027500
X002200Y026500
X027000Y028800
X027000Y029800
X015300Y020800
X015300Y021800
X015300Y022800
X002200Y034500
X002200Y033500
X002200Y032500
X002200Y031500
T04
X016700Y034500
X016700Y037500
X014700Y034500
X014700Y037500
X015700Y037500
X015700Y034500
T05
X005800Y021019
X005800Y023580
X004100Y036500
X004100Y035500
X004100Y034500
X004100Y033500
X004100Y032500
X004100Y031500
X004100Y030500
X004100Y029500
X004100Y028500
X004100Y027500
X004100Y026500
X004100Y025500
X010100Y025500
X010100Y026500
X010100Y027500
X010100Y028500
X010100Y029500
X010100Y030500
X010100Y031500
X010100Y032500
X010100Y033500
X010100Y034500
X010100Y035500
X010100Y036500
X025250Y035100
X025250Y036100
X025250Y037100
X025250Y034100
X025250Y033100
X025250Y032100
X025250Y031100
X025250Y030100
X020250Y030100
X020250Y031100
X020250Y032100
X020250Y033100
X020250Y034100
X020250Y035100
X020250Y036100
X020250Y037100
X025250Y026500
X025250Y027500
X025250Y028500
X025250Y025500
X025250Y024500
X025250Y023500
X025250Y022500
X025250Y021500
X020250Y021500
X020250Y022500
X020250Y023500
X020250Y024500
X020250Y025500
X020250Y026500
X020250Y027500
X020250Y028500
X012600Y032700
X012600Y031700
X012600Y030700
X012600Y029700
X012600Y028700
X012600Y027700
X012600Y026700
X012600Y025700
X018800Y036000
X017800Y036000
T06
X017100Y032200
X017100Y026200
X001575Y037625
X027952Y037625
X027952Y021090
X001575Y021090
T07
X007851Y035542
X011197Y035694
X011519Y033804
X020378Y019819
X020276Y029355
X004061Y023202
X018952Y031100
X006386Y030580
X018818Y020159
X019359Y030325
X013738Y037840
X008294Y037994
X013315Y034351
X009009Y031500
X009167Y036276
X007944Y034990
X008594Y030500
M30
