G04 ---------------------------- Layer name :TOP SILK LAYER*
G04 easyEDA 0.1*
G04 Scale: 100 percent, Rotated: No, Reflected: No *
G04 Dimensions in inches *
G04 leading zeros omitted , absolute positions ,2 integer and 4 * 
%FSLAX24Y24*%
%MOIN*%
G90*
G70D02*

%ADD10C,0.010000*%
%ADD11C,0.005000*%
%ADD12C,0.012000*%
%ADD13C,0.008000*%
%ADD14C,0.006000*%

%LPD*%
G54D10*
G01X3600Y38000D02*
G01X10600Y38000D01*
G01X10600Y25000D01*
G01X3600Y25000D01*
G01X3600Y38000D01*
G01X5000Y38000D01*
G01X5700Y38300D02*
G01X5700Y36700D01*
G01X8600Y36700D01*
G01X8600Y38300D01*
G01X12209Y35280D02*
G01X12209Y35590D01*
G01X12369Y35430D02*
G01X12039Y35430D01*
G01X11600Y36200D02*
G01X11600Y37200D01*
G01X13600Y37200D01*
G01X13600Y36200D01*
G01X11600Y36200D01*
G01X13200Y20300D02*
G01X12200Y20300D01*
G01X12200Y23300D01*
G01X13200Y23300D01*
G01X13200Y20300D01*
G01X17300Y20300D02*
G01X16300Y20300D01*
G01X16300Y23300D01*
G01X17300Y23300D01*
G01X17300Y20300D01*
G01X18800Y20300D02*
G01X17800Y20300D01*
G01X17800Y23300D01*
G01X18800Y23300D01*
G01X18800Y20300D01*
G01X22089Y36590D02*
G01X22710Y36590D01*
G01X22710Y35809D02*
G01X22089Y35809D01*
G01X22089Y35590D02*
G01X22710Y35590D01*
G01X22710Y34809D02*
G01X22089Y34809D01*
G01X22089Y34590D02*
G01X22710Y34590D01*
G01X22710Y33809D02*
G01X22089Y33809D01*
G01X22089Y27990D02*
G01X22710Y27990D01*
G01X22710Y27209D02*
G01X22089Y27209D01*
G01X22089Y26990D02*
G01X22710Y26990D01*
G01X22710Y26209D02*
G01X22089Y26209D01*
G01X22089Y25990D02*
G01X22710Y25990D01*
G01X22710Y25209D02*
G01X22089Y25209D01*
G01X16400Y35000D02*
G01X16400Y37000D01*
G01X16400Y37000D02*
G01X16700Y37000D01*
G01X16700Y37000D02*
G01X17000Y37000D01*
G01X17000Y37000D02*
G01X17000Y35000D01*
G01X17000Y35000D02*
G01X16700Y35000D01*
G01X16700Y35000D02*
G01X16400Y35000D01*
G01X16700Y37000D02*
G01X16700Y37100D01*
G01X16700Y35000D02*
G01X16700Y34900D01*
G01X14400Y35000D02*
G01X14400Y37000D01*
G01X14400Y37000D02*
G01X14700Y37000D01*
G01X14700Y37000D02*
G01X15000Y37000D01*
G01X15000Y37000D02*
G01X15000Y35000D01*
G01X15000Y35000D02*
G01X14700Y35000D01*
G01X14700Y35000D02*
G01X14400Y35000D01*
G01X14700Y37000D02*
G01X14700Y37100D01*
G01X14700Y35000D02*
G01X14700Y34900D01*
G01X16000Y37000D02*
G01X16000Y35000D01*
G01X16000Y35000D02*
G01X15700Y35000D01*
G01X15700Y35000D02*
G01X15400Y35000D01*
G01X15400Y35000D02*
G01X15400Y37000D01*
G01X15400Y37000D02*
G01X15700Y37000D01*
G01X15700Y37000D02*
G01X16000Y37000D01*
G01X15700Y35000D02*
G01X15700Y34900D01*
G01X15700Y37000D02*
G01X15700Y37100D01*
G01X11700Y20300D02*
G01X10700Y20300D01*
G01X10700Y23300D01*
G01X11700Y23300D01*
G01X11700Y20300D01*
G01X10200Y20300D02*
G01X9200Y20300D01*
G01X9200Y23300D01*
G01X10200Y23300D01*
G01X10200Y20300D01*
G01X5680Y38600D02*
G01X5550Y38830D01*
G01X8730Y38830D01*
G01X8600Y38600D01*
G01X5680Y38600D01*
G01X8590Y38350D02*
G01X5690Y38350D01*
G01X8440Y36630D02*
G01X8600Y36630D01*
G01X8600Y37240D01*
G01X5880Y36630D02*
G01X5680Y36630D01*
G01X5680Y37280D01*
G01X8600Y38219D02*
G01X8600Y38580D01*
G01X5680Y38219D02*
G01X5680Y38580D01*
G01X7100Y28400D02*
G01X5100Y30400D01*
G01X7100Y32400D01*
G01X9100Y30400D01*
G01X7100Y28400D01*
G01X27500Y31600D02*
G01X26500Y31600D01*
G01X26500Y35600D01*
G01X27500Y35600D01*
G01X27500Y31600D01*
G01X27500Y23000D02*
G01X26500Y23000D01*
G01X26500Y27000D01*
G01X27500Y27000D01*
G01X27500Y23000D01*
G01X1700Y30000D02*
G01X2700Y30000D01*
G01X2700Y26000D01*
G01X1700Y26000D01*
G01X1700Y30000D01*
G54D11*
G01X25750Y29600D02*
G01X19750Y29600D01*
G01X19750Y37600D01*
G01X25750Y37600D01*
G01X25750Y29600D01*
G01X25750Y21000D02*
G01X19750Y21000D01*
G01X19750Y29000D01*
G01X25750Y29000D01*
G01X25750Y21000D01*
G54D10*
G01X11900Y33400D02*
G01X18300Y33400D01*
G01X18300Y25000D01*
G01X11900Y25000D01*
G01X11900Y33400D01*
G01X18610Y36390D02*
G01X18610Y36590D01*
G01X18610Y36790D01*
G01X18300Y36390D02*
G01X18300Y36590D01*
G01X18300Y36790D01*
G01X18300Y36590D02*
G01X17910Y36590D01*
G01X19010Y36590D02*
G01X18610Y36590D01*
G01X18380Y36280D02*
G01X18180Y36080D01*
G01X18380Y36080D01*
G01X18180Y36280D01*
G01X18180Y36080D01*
G01X17550Y35250D02*
G01X17550Y35719D01*
G01X17550Y36750D02*
G01X17550Y36350D01*
G01X27500Y28300D02*
G01X26500Y28300D01*
G01X26500Y30300D01*
G01X27500Y30300D01*
G01X27500Y28300D01*
G01X15800Y20300D02*
G01X14800Y20300D01*
G01X14800Y23300D01*
G01X15800Y23300D01*
G01X15800Y20300D01*
G01X1700Y35000D02*
G01X2700Y35000D01*
G01X2700Y31000D01*
G01X1700Y31000D01*
G01X1700Y35000D01*
G54D12*
G01X8209Y34669D02*
G01X8990Y34669D01*
G01X8990Y34669D02*
G01X8990Y35240D01*
G01X8990Y35240D02*
G01X8990Y35759D01*
G01X8990Y35759D02*
G01X8990Y36330D01*
G01X8990Y36330D02*
G01X8209Y36330D01*
G01X8209Y36330D02*
G01X8209Y35759D01*
G01X8209Y35759D02*
G01X8209Y35240D01*
G01X8209Y35240D02*
G01X8209Y34669D01*
G01X8990Y35240D02*
G01X8900Y35240D01*
G01X8209Y35240D02*
G01X8300Y35240D01*
G01X8209Y35759D02*
G01X8300Y35759D01*
G01X8990Y35759D02*
G01X8900Y35759D01*
G54D13*
G01X28400Y27817D02*
G01X28734Y27817D01*
G01X28400Y27817D02*
G01X28734Y27944D01*
G01X28400Y28072D02*
G01X28734Y27944D01*
G01X28400Y28072D02*
G01X28734Y28072D01*
G01X28511Y28256D02*
G01X28527Y28224D01*
G01X28559Y28192D01*
G01X28607Y28177D01*
G01X28639Y28177D01*
G01X28686Y28192D01*
G01X28718Y28224D01*
G01X28734Y28256D01*
G01X28734Y28304D01*
G01X28718Y28336D01*
G01X28686Y28367D01*
G01X28639Y28383D01*
G01X28607Y28383D01*
G01X28559Y28367D01*
G01X28527Y28336D01*
G01X28511Y28304D01*
G01X28511Y28256D01*
G01X28400Y28536D02*
G01X28671Y28536D01*
G01X28718Y28552D01*
G01X28734Y28584D01*
G01X28734Y28616D01*
G01X28511Y28488D02*
G01X28511Y28600D01*
G01X28511Y28800D02*
G01X28527Y28768D01*
G01X28559Y28737D01*
G01X28607Y28721D01*
G01X28639Y28721D01*
G01X28686Y28737D01*
G01X28718Y28768D01*
G01X28734Y28800D01*
G01X28734Y28848D01*
G01X28718Y28880D01*
G01X28686Y28912D01*
G01X28639Y28927D01*
G01X28607Y28927D01*
G01X28559Y28912D01*
G01X28527Y28880D01*
G01X28511Y28848D01*
G01X28511Y28800D01*
G01X28511Y29032D02*
G01X28734Y29032D01*
G01X28607Y29032D02*
G01X28559Y29048D01*
G01X28527Y29080D01*
G01X28511Y29112D01*
G01X28511Y29160D01*
G01X28511Y29510D02*
G01X28846Y29510D01*
G01X28559Y29510D02*
G01X28527Y29542D01*
G01X28511Y29573D01*
G01X28511Y29621D01*
G01X28527Y29653D01*
G01X28559Y29685D01*
G01X28607Y29701D01*
G01X28639Y29701D01*
G01X28686Y29685D01*
G01X28718Y29653D01*
G01X28734Y29621D01*
G01X28734Y29573D01*
G01X28718Y29542D01*
G01X28686Y29510D01*
G01X28511Y29885D02*
G01X28527Y29853D01*
G01X28559Y29822D01*
G01X28607Y29806D01*
G01X28639Y29806D01*
G01X28686Y29822D01*
G01X28718Y29853D01*
G01X28734Y29885D01*
G01X28734Y29933D01*
G01X28718Y29965D01*
G01X28686Y29997D01*
G01X28639Y30012D01*
G01X28607Y30012D01*
G01X28559Y29997D01*
G01X28527Y29965D01*
G01X28511Y29933D01*
G01X28511Y29885D01*
G01X28511Y30117D02*
G01X28734Y30181D01*
G01X28511Y30245D02*
G01X28734Y30181D01*
G01X28511Y30245D02*
G01X28734Y30308D01*
G01X28511Y30372D02*
G01X28734Y30308D01*
G01X28607Y30477D02*
G01X28607Y30668D01*
G01X28575Y30668D01*
G01X28543Y30652D01*
G01X28527Y30636D01*
G01X28511Y30604D01*
G01X28511Y30557D01*
G01X28527Y30525D01*
G01X28559Y30493D01*
G01X28607Y30477D01*
G01X28639Y30477D01*
G01X28686Y30493D01*
G01X28718Y30525D01*
G01X28734Y30557D01*
G01X28734Y30604D01*
G01X28718Y30636D01*
G01X28686Y30668D01*
G01X28511Y30773D02*
G01X28734Y30773D01*
G01X28607Y30773D02*
G01X28559Y30789D01*
G01X28527Y30821D01*
G01X28511Y30852D01*
G01X28511Y30900D01*
G01X28448Y32623D02*
G01X28416Y32590D01*
G01X28400Y32542D01*
G01X28400Y32480D01*
G01X28416Y32432D01*
G01X28448Y32400D01*
G01X28480Y32400D01*
G01X28511Y32415D01*
G01X28527Y32432D01*
G01X28543Y32463D01*
G01X28575Y32559D01*
G01X28591Y32590D01*
G01X28607Y32607D01*
G01X28639Y32623D01*
G01X28686Y32623D01*
G01X28718Y32590D01*
G01X28734Y32542D01*
G01X28734Y32480D01*
G01X28718Y32432D01*
G01X28686Y32400D01*
G01X28400Y32775D02*
G01X28671Y32775D01*
G01X28718Y32790D01*
G01X28734Y32823D01*
G01X28734Y32855D01*
G01X28511Y32728D02*
G01X28511Y32838D01*
G01X28607Y32959D02*
G01X28607Y33151D01*
G01X28575Y33151D01*
G01X28543Y33134D01*
G01X28527Y33119D01*
G01X28511Y33086D01*
G01X28511Y33040D01*
G01X28527Y33007D01*
G01X28559Y32976D01*
G01X28607Y32959D01*
G01X28639Y32959D01*
G01X28686Y32976D01*
G01X28718Y33007D01*
G01X28734Y33040D01*
G01X28734Y33086D01*
G01X28718Y33119D01*
G01X28686Y33151D01*
G01X28511Y33255D02*
G01X28846Y33255D01*
G01X28559Y33255D02*
G01X28527Y33288D01*
G01X28511Y33319D01*
G01X28511Y33367D01*
G01X28527Y33398D01*
G01X28559Y33430D01*
G01X28607Y33446D01*
G01X28639Y33446D01*
G01X28686Y33430D01*
G01X28718Y33398D01*
G01X28734Y33367D01*
G01X28734Y33319D01*
G01X28718Y33288D01*
G01X28686Y33255D01*
G01X28511Y33552D02*
G01X28846Y33552D01*
G01X28559Y33552D02*
G01X28527Y33584D01*
G01X28511Y33615D01*
G01X28511Y33663D01*
G01X28527Y33694D01*
G01X28559Y33727D01*
G01X28607Y33742D01*
G01X28639Y33742D01*
G01X28686Y33727D01*
G01X28718Y33694D01*
G01X28734Y33663D01*
G01X28734Y33615D01*
G01X28718Y33584D01*
G01X28686Y33552D01*
G01X28607Y33848D02*
G01X28607Y34038D01*
G01X28575Y34038D01*
G01X28543Y34023D01*
G01X28527Y34007D01*
G01X28511Y33975D01*
G01X28511Y33927D01*
G01X28527Y33894D01*
G01X28559Y33863D01*
G01X28607Y33848D01*
G01X28639Y33848D01*
G01X28686Y33863D01*
G01X28718Y33894D01*
G01X28734Y33927D01*
G01X28734Y33975D01*
G01X28718Y34007D01*
G01X28686Y34038D01*
G01X28511Y34144D02*
G01X28734Y34144D01*
G01X28607Y34144D02*
G01X28559Y34159D01*
G01X28527Y34190D01*
G01X28511Y34223D01*
G01X28511Y34271D01*
G01X28464Y34621D02*
G01X28448Y34653D01*
G01X28400Y34700D01*
G01X28734Y34700D01*
G01X28448Y23979D02*
G01X28416Y23947D01*
G01X28400Y23899D01*
G01X28400Y23836D01*
G01X28416Y23788D01*
G01X28448Y23756D01*
G01X28480Y23756D01*
G01X28511Y23772D01*
G01X28527Y23788D01*
G01X28543Y23820D01*
G01X28575Y23915D01*
G01X28591Y23947D01*
G01X28607Y23963D01*
G01X28639Y23979D01*
G01X28686Y23979D01*
G01X28718Y23947D01*
G01X28734Y23899D01*
G01X28734Y23836D01*
G01X28718Y23788D01*
G01X28686Y23756D01*
G01X28400Y24131D02*
G01X28671Y24131D01*
G01X28718Y24147D01*
G01X28734Y24179D01*
G01X28734Y24211D01*
G01X28511Y24084D02*
G01X28511Y24195D01*
G01X28607Y24316D02*
G01X28607Y24507D01*
G01X28575Y24507D01*
G01X28543Y24491D01*
G01X28527Y24475D01*
G01X28511Y24443D01*
G01X28511Y24396D01*
G01X28527Y24364D01*
G01X28559Y24332D01*
G01X28607Y24316D01*
G01X28639Y24316D01*
G01X28686Y24332D01*
G01X28718Y24364D01*
G01X28734Y24396D01*
G01X28734Y24443D01*
G01X28718Y24475D01*
G01X28686Y24507D01*
G01X28511Y24612D02*
G01X28846Y24612D01*
G01X28559Y24612D02*
G01X28527Y24644D01*
G01X28511Y24676D01*
G01X28511Y24723D01*
G01X28527Y24755D01*
G01X28559Y24787D01*
G01X28607Y24803D01*
G01X28639Y24803D01*
G01X28686Y24787D01*
G01X28718Y24755D01*
G01X28734Y24723D01*
G01X28734Y24676D01*
G01X28718Y24644D01*
G01X28686Y24612D01*
G01X28511Y24908D02*
G01X28846Y24908D01*
G01X28559Y24908D02*
G01X28527Y24940D01*
G01X28511Y24971D01*
G01X28511Y25019D01*
G01X28527Y25051D01*
G01X28559Y25083D01*
G01X28607Y25099D01*
G01X28639Y25099D01*
G01X28686Y25083D01*
G01X28718Y25051D01*
G01X28734Y25019D01*
G01X28734Y24971D01*
G01X28718Y24940D01*
G01X28686Y24908D01*
G01X28607Y25204D02*
G01X28607Y25395D01*
G01X28575Y25395D01*
G01X28543Y25379D01*
G01X28527Y25363D01*
G01X28511Y25331D01*
G01X28511Y25283D01*
G01X28527Y25251D01*
G01X28559Y25220D01*
G01X28607Y25204D01*
G01X28639Y25204D01*
G01X28686Y25220D01*
G01X28718Y25251D01*
G01X28734Y25283D01*
G01X28734Y25331D01*
G01X28718Y25363D01*
G01X28686Y25395D01*
G01X28511Y25500D02*
G01X28734Y25500D01*
G01X28607Y25500D02*
G01X28559Y25516D01*
G01X28527Y25547D01*
G01X28511Y25579D01*
G01X28511Y25627D01*
G01X28480Y25993D02*
G01X28464Y25993D01*
G01X28432Y26009D01*
G01X28416Y26025D01*
G01X28400Y26056D01*
G01X28400Y26120D01*
G01X28416Y26152D01*
G01X28432Y26168D01*
G01X28464Y26184D01*
G01X28496Y26184D01*
G01X28527Y26168D01*
G01X28575Y26136D01*
G01X28734Y25977D01*
G01X28734Y26200D01*
G01X27797Y28713D02*
G01X28084Y28713D01*
G01X27940Y28569D02*
G01X27940Y28855D01*
G01X27830Y29444D02*
G01X27797Y29428D01*
G01X27765Y29396D01*
G01X27750Y29365D01*
G01X27750Y29302D01*
G01X27765Y29269D01*
G01X27797Y29238D01*
G01X27830Y29221D01*
G01X27877Y29205D01*
G01X27956Y29205D01*
G01X28005Y29221D01*
G01X28035Y29238D01*
G01X28068Y29269D01*
G01X28084Y29302D01*
G01X28084Y29365D01*
G01X28068Y29396D01*
G01X28035Y29428D01*
G01X28005Y29444D01*
G01X27956Y29444D01*
G01X27956Y29365D02*
G01X27956Y29444D01*
G01X27750Y29550D02*
G01X28084Y29550D01*
G01X27750Y29550D02*
G01X28084Y29773D01*
G01X27750Y29773D02*
G01X28084Y29773D01*
G01X27750Y29878D02*
G01X28084Y29878D01*
G01X27750Y29878D02*
G01X27750Y29988D01*
G01X27765Y30036D01*
G01X27797Y30069D01*
G01X27830Y30084D01*
G01X27877Y30100D01*
G01X27956Y30100D01*
G01X28005Y30084D01*
G01X28035Y30069D01*
G01X28068Y30036D01*
G01X28084Y29988D01*
G01X28084Y29878D01*
G01X1386Y34857D02*
G01X1100Y34857D01*
G01X1243Y35000D02*
G01X1243Y34714D01*
G01X1434Y34418D02*
G01X1434Y34577D01*
G01X1291Y34593D01*
G01X1307Y34577D01*
G01X1323Y34529D01*
G01X1323Y34481D01*
G01X1307Y34434D01*
G01X1275Y34402D01*
G01X1227Y34386D01*
G01X1195Y34386D01*
G01X1148Y34402D01*
G01X1116Y34434D01*
G01X1100Y34481D01*
G01X1100Y34529D01*
G01X1116Y34577D01*
G01X1132Y34593D01*
G01X1163Y34609D01*
G01X1434Y34281D02*
G01X1100Y34154D01*
G01X1434Y34026D02*
G01X1100Y34154D01*
G01X1354Y33438D02*
G01X1386Y33454D01*
G01X1418Y33485D01*
G01X1434Y33517D01*
G01X1434Y33581D01*
G01X1418Y33613D01*
G01X1386Y33645D01*
G01X1354Y33660D01*
G01X1307Y33676D01*
G01X1227Y33676D01*
G01X1179Y33660D01*
G01X1148Y33645D01*
G01X1116Y33613D01*
G01X1100Y33581D01*
G01X1100Y33517D01*
G01X1116Y33485D01*
G01X1148Y33454D01*
G01X1179Y33438D01*
G01X1227Y33438D01*
G01X1227Y33517D02*
G01X1227Y33438D01*
G01X1434Y33333D02*
G01X1100Y33333D01*
G01X1434Y33333D02*
G01X1100Y33110D01*
G01X1434Y33110D02*
G01X1100Y33110D01*
G01X1434Y33005D02*
G01X1100Y33005D01*
G01X1434Y33005D02*
G01X1434Y32894D01*
G01X1418Y32846D01*
G01X1386Y32814D01*
G01X1354Y32798D01*
G01X1307Y32782D01*
G01X1227Y32782D01*
G01X1179Y32798D01*
G01X1148Y32814D01*
G01X1116Y32846D01*
G01X1100Y32894D01*
G01X1100Y33005D01*
G01X1434Y32321D02*
G01X1100Y32321D01*
G01X1434Y32432D02*
G01X1434Y32210D01*
G01X1434Y32105D02*
G01X1100Y31882D01*
G01X1434Y31882D02*
G01X1100Y32105D01*
G01X1434Y31532D02*
G01X1100Y31532D01*
G01X1434Y31532D02*
G01X1434Y31389D01*
G01X1418Y31341D01*
G01X1402Y31325D01*
G01X1370Y31309D01*
G01X1338Y31309D01*
G01X1307Y31325D01*
G01X1291Y31341D01*
G01X1275Y31389D01*
G01X1275Y31532D01*
G01X1275Y31420D02*
G01X1100Y31309D01*
G01X1434Y31204D02*
G01X1100Y30981D01*
G01X1434Y30981D02*
G01X1100Y31204D01*
G01X1434Y30166D02*
G01X1148Y30166D01*
G01X1291Y30309D02*
G01X1291Y30023D01*
G01X1482Y29727D02*
G01X1482Y29886D01*
G01X1339Y29902D01*
G01X1355Y29886D01*
G01X1371Y29838D01*
G01X1371Y29790D01*
G01X1355Y29743D01*
G01X1323Y29711D01*
G01X1275Y29695D01*
G01X1243Y29695D01*
G01X1196Y29711D01*
G01X1164Y29743D01*
G01X1148Y29790D01*
G01X1148Y29838D01*
G01X1164Y29886D01*
G01X1180Y29902D01*
G01X1211Y29918D01*
G01X1482Y29590D02*
G01X1148Y29463D01*
G01X1482Y29335D02*
G01X1148Y29463D01*
G01X1402Y28747D02*
G01X1434Y28763D01*
G01X1466Y28794D01*
G01X1482Y28826D01*
G01X1482Y28890D01*
G01X1466Y28922D01*
G01X1434Y28954D01*
G01X1402Y28969D01*
G01X1355Y28985D01*
G01X1275Y28985D01*
G01X1227Y28969D01*
G01X1196Y28954D01*
G01X1164Y28922D01*
G01X1148Y28890D01*
G01X1148Y28826D01*
G01X1164Y28794D01*
G01X1196Y28763D01*
G01X1227Y28747D01*
G01X1275Y28747D01*
G01X1275Y28826D02*
G01X1275Y28747D01*
G01X1482Y28642D02*
G01X1148Y28642D01*
G01X1482Y28642D02*
G01X1148Y28419D01*
G01X1482Y28419D02*
G01X1148Y28419D01*
G01X1482Y28314D02*
G01X1148Y28314D01*
G01X1482Y28314D02*
G01X1482Y28203D01*
G01X1466Y28155D01*
G01X1434Y28123D01*
G01X1402Y28107D01*
G01X1355Y28091D01*
G01X1275Y28091D01*
G01X1227Y28107D01*
G01X1196Y28123D01*
G01X1164Y28155D01*
G01X1148Y28203D01*
G01X1148Y28314D01*
G01X1434Y27519D02*
G01X1466Y27550D01*
G01X1482Y27598D01*
G01X1482Y27662D01*
G01X1466Y27709D01*
G01X1434Y27741D01*
G01X1402Y27741D01*
G01X1371Y27725D01*
G01X1355Y27709D01*
G01X1339Y27678D01*
G01X1307Y27582D01*
G01X1291Y27550D01*
G01X1275Y27534D01*
G01X1243Y27519D01*
G01X1196Y27519D01*
G01X1164Y27550D01*
G01X1148Y27598D01*
G01X1148Y27662D01*
G01X1164Y27709D01*
G01X1196Y27741D01*
G01X1482Y27414D02*
G01X1148Y27414D01*
G01X1482Y27414D02*
G01X1482Y27302D01*
G01X1466Y27254D01*
G01X1434Y27223D01*
G01X1402Y27207D01*
G01X1355Y27191D01*
G01X1275Y27191D01*
G01X1227Y27207D01*
G01X1196Y27223D01*
G01X1164Y27254D01*
G01X1148Y27302D01*
G01X1148Y27414D01*
G01X1482Y26959D02*
G01X1148Y27086D01*
G01X1482Y26959D02*
G01X1148Y26831D01*
G01X1259Y27038D02*
G01X1259Y26879D01*
G01X1434Y26259D02*
G01X1466Y26290D01*
G01X1482Y26338D01*
G01X1482Y26402D01*
G01X1466Y26449D01*
G01X1434Y26481D01*
G01X1402Y26481D01*
G01X1371Y26465D01*
G01X1355Y26449D01*
G01X1339Y26418D01*
G01X1307Y26322D01*
G01X1291Y26290D01*
G01X1275Y26274D01*
G01X1243Y26259D01*
G01X1196Y26259D01*
G01X1164Y26290D01*
G01X1148Y26338D01*
G01X1148Y26402D01*
G01X1164Y26449D01*
G01X1196Y26481D01*
G01X1402Y25915D02*
G01X1434Y25931D01*
G01X1466Y25963D01*
G01X1482Y25994D01*
G01X1482Y26058D01*
G01X1466Y26090D01*
G01X1434Y26122D01*
G01X1402Y26138D01*
G01X1355Y26154D01*
G01X1275Y26154D01*
G01X1227Y26138D01*
G01X1196Y26122D01*
G01X1164Y26090D01*
G01X1148Y26058D01*
G01X1148Y25994D01*
G01X1164Y25963D01*
G01X1196Y25931D01*
G01X1227Y25915D01*
G01X1482Y25810D02*
G01X1148Y25810D01*
G01X1148Y25810D02*
G01X1148Y25619D01*
G01X9300Y23764D02*
G01X9387Y23417D01*
G01X9300Y23764D02*
G01X9596Y23564D01*
G01X9363Y23536D02*
G01X9493Y23627D01*
G01X9527Y23845D02*
G01X9543Y23876D01*
G01X9555Y23943D01*
G01X9747Y23669D01*
G01X9839Y24219D02*
G01X9897Y23638D01*
G01X9961Y24227D02*
G01X10153Y23954D01*
G01X9961Y24227D02*
G01X10053Y24291D01*
G01X10102Y24306D01*
G01X10145Y24297D01*
G01X10177Y24280D01*
G01X10217Y24251D01*
G01X10263Y24186D01*
G01X10277Y24137D01*
G01X10282Y24102D01*
G01X10275Y24058D01*
G01X10245Y24018D01*
G01X10153Y23954D01*
G01X10267Y24363D02*
G01X10284Y24394D01*
G01X10296Y24461D01*
G01X10487Y24188D01*
G01X10615Y24549D02*
G01X10629Y24501D01*
G01X10621Y24456D01*
G01X10591Y24415D01*
G01X10578Y24406D01*
G01X10530Y24392D01*
G01X10486Y24400D01*
G01X10445Y24430D01*
G01X10437Y24443D01*
G01X10422Y24491D01*
G01X10429Y24535D01*
G01X10459Y24576D01*
G01X10473Y24585D01*
G01X10521Y24599D01*
G01X10566Y24592D01*
G01X10615Y24549D01*
G01X10661Y24484D01*
G01X10693Y24409D01*
G01X10694Y24352D01*
G01X10664Y24311D01*
G01X10638Y24293D01*
G01X10590Y24279D01*
G01X10559Y24296D01*
G01X10800Y23790D02*
G01X10887Y23444D01*
G01X10800Y23790D02*
G01X11096Y23590D01*
G01X10863Y23563D02*
G01X10993Y23654D01*
G01X11049Y23867D02*
G01X11039Y23880D01*
G01X11034Y23916D01*
G01X11038Y23938D01*
G01X11055Y23969D01*
G01X11107Y24006D01*
G01X11143Y24011D01*
G01X11164Y24007D01*
G01X11196Y23990D01*
G01X11214Y23964D01*
G01X11219Y23929D01*
G01X11221Y23872D01*
G01X11182Y23651D01*
G01X11364Y23778D01*
G01X11457Y24329D02*
G01X11514Y23746D01*
G01X11579Y24337D02*
G01X11771Y24063D01*
G01X11579Y24337D02*
G01X11670Y24400D01*
G01X11719Y24415D01*
G01X11763Y24407D01*
G01X11794Y24389D01*
G01X11834Y24360D01*
G01X11880Y24294D01*
G01X11894Y24246D01*
G01X11900Y24212D01*
G01X11892Y24167D01*
G01X11862Y24127D01*
G01X11771Y24063D01*
G01X11906Y24468D02*
G01X11897Y24481D01*
G01X11892Y24516D01*
G01X11896Y24539D01*
G01X11913Y24570D01*
G01X11965Y24607D01*
G01X12000Y24611D01*
G01X12022Y24607D01*
G01X12053Y24590D01*
G01X12072Y24564D01*
G01X12077Y24530D01*
G01X12078Y24472D01*
G01X12039Y24250D01*
G01X12221Y24378D01*
G01X12195Y24767D02*
G01X12164Y24727D01*
G01X12166Y24669D01*
G01X12198Y24595D01*
G01X12225Y24556D01*
G01X12284Y24499D01*
G01X12338Y24479D01*
G01X12386Y24494D01*
G01X12411Y24511D01*
G01X12442Y24552D01*
G01X12441Y24609D01*
G01X12408Y24684D01*
G01X12381Y24723D01*
G01X12322Y24779D01*
G01X12268Y24799D01*
G01X12220Y24785D01*
G01X12195Y24767D01*
G01X12299Y23832D02*
G01X12387Y23485D01*
G01X12299Y23832D02*
G01X12596Y23632D01*
G01X12363Y23604D02*
G01X12493Y23695D01*
G01X12516Y23983D02*
G01X12659Y24084D01*
G01X12654Y23925D01*
G01X12693Y23953D01*
G01X12728Y23957D01*
G01X12750Y23953D01*
G01X12791Y23923D01*
G01X12809Y23897D01*
G01X12823Y23849D01*
G01X12816Y23805D01*
G01X12786Y23765D01*
G01X12747Y23737D01*
G01X12698Y23723D01*
G01X12676Y23727D01*
G01X12646Y23744D01*
G01X12957Y24370D02*
G01X13014Y23788D01*
G01X13079Y24378D02*
G01X13271Y24104D01*
G01X13079Y24378D02*
G01X13170Y24442D01*
G01X13219Y24456D01*
G01X13263Y24448D01*
G01X13294Y24431D01*
G01X13334Y24401D01*
G01X13380Y24336D01*
G01X13394Y24287D01*
G01X13400Y24253D01*
G01X13392Y24209D01*
G01X13362Y24168D01*
G01X13271Y24104D01*
G01X13406Y24509D02*
G01X13397Y24522D01*
G01X13392Y24558D01*
G01X13396Y24580D01*
G01X13413Y24611D01*
G01X13465Y24648D01*
G01X13500Y24653D01*
G01X13522Y24649D01*
G01X13553Y24632D01*
G01X13572Y24606D01*
G01X13576Y24571D01*
G01X13578Y24513D01*
G01X13539Y24292D01*
G01X13721Y24420D01*
G01X13653Y24701D02*
G01X13670Y24733D01*
G01X13681Y24799D01*
G01X13873Y24526D01*
G01X14900Y23800D02*
G01X14900Y23466D01*
G01X14900Y23800D02*
G01X15010Y23800D01*
G01X15059Y23784D01*
G01X15090Y23752D01*
G01X15106Y23720D01*
G01X15122Y23673D01*
G01X15122Y23593D01*
G01X15106Y23545D01*
G01X15090Y23514D01*
G01X15059Y23482D01*
G01X15010Y23466D01*
G01X14900Y23466D01*
G01X15227Y23736D02*
G01X15260Y23752D01*
G01X15306Y23800D01*
G01X15306Y23466D01*
G01X15571Y23800D02*
G01X15411Y23577D01*
G01X15651Y23577D01*
G01X15571Y23800D02*
G01X15571Y23466D01*
G01X16400Y23800D02*
G01X16400Y23466D01*
G01X16400Y23800D02*
G01X16510Y23800D01*
G01X16559Y23784D01*
G01X16590Y23752D01*
G01X16606Y23720D01*
G01X16622Y23673D01*
G01X16622Y23593D01*
G01X16606Y23545D01*
G01X16590Y23514D01*
G01X16559Y23482D01*
G01X16510Y23466D01*
G01X16400Y23466D01*
G01X16727Y23736D02*
G01X16760Y23752D01*
G01X16806Y23800D01*
G01X16806Y23466D01*
G01X17102Y23800D02*
G01X16943Y23800D01*
G01X16927Y23657D01*
G01X16943Y23673D01*
G01X16992Y23689D01*
G01X17039Y23689D01*
G01X17086Y23673D01*
G01X17118Y23641D01*
G01X17135Y23593D01*
G01X17135Y23561D01*
G01X17118Y23514D01*
G01X17086Y23482D01*
G01X17039Y23466D01*
G01X16992Y23466D01*
G01X16943Y23482D01*
G01X16927Y23498D01*
G01X16911Y23529D01*
G01X17900Y23799D02*
G01X17900Y23465D01*
G01X17900Y23799D02*
G01X18010Y23799D01*
G01X18059Y23783D01*
G01X18090Y23751D01*
G01X18106Y23719D01*
G01X18122Y23672D01*
G01X18122Y23592D01*
G01X18106Y23544D01*
G01X18090Y23513D01*
G01X18059Y23481D01*
G01X18010Y23465D01*
G01X17900Y23465D01*
G01X18227Y23735D02*
G01X18260Y23751D01*
G01X18306Y23799D01*
G01X18306Y23465D01*
G01X18602Y23751D02*
G01X18586Y23783D01*
G01X18539Y23799D01*
G01X18507Y23799D01*
G01X18460Y23783D01*
G01X18427Y23735D01*
G01X18411Y23656D01*
G01X18411Y23576D01*
G01X18427Y23513D01*
G01X18460Y23481D01*
G01X18507Y23465D01*
G01X18523Y23465D01*
G01X18571Y23481D01*
G01X18602Y23513D01*
G01X18618Y23560D01*
G01X18618Y23576D01*
G01X18602Y23624D01*
G01X18571Y23656D01*
G01X18523Y23672D01*
G01X18507Y23672D01*
G01X18460Y23656D01*
G01X18427Y23624D01*
G01X18411Y23576D01*
G01X13642Y21952D02*
G01X13642Y21666D01*
G01X13499Y21809D02*
G01X13785Y21809D01*
G01X14081Y22000D02*
G01X13922Y22000D01*
G01X13906Y21857D01*
G01X13922Y21873D01*
G01X13970Y21889D01*
G01X14018Y21889D01*
G01X14065Y21873D01*
G01X14097Y21841D01*
G01X14113Y21793D01*
G01X14113Y21761D01*
G01X14097Y21714D01*
G01X14065Y21682D01*
G01X14018Y21666D01*
G01X13970Y21666D01*
G01X13922Y21682D01*
G01X13906Y21698D01*
G01X13890Y21729D01*
G01X14218Y22000D02*
G01X14345Y21666D01*
G01X14473Y22000D02*
G01X14345Y21666D01*
G01X11399Y37799D02*
G01X11399Y37465D01*
G01X11399Y37799D02*
G01X11542Y37799D01*
G01X11590Y37783D01*
G01X11606Y37767D01*
G01X11622Y37735D01*
G01X11622Y37703D01*
G01X11606Y37672D01*
G01X11590Y37656D01*
G01X11542Y37640D01*
G01X11399Y37640D01*
G01X11510Y37640D02*
G01X11622Y37465D01*
G01X11854Y37799D02*
G01X11727Y37465D01*
G01X11854Y37799D02*
G01X11981Y37465D01*
G01X11774Y37576D02*
G01X11934Y37576D01*
G01X12086Y37799D02*
G01X12166Y37465D01*
G01X12245Y37799D02*
G01X12166Y37465D01*
G01X12245Y37799D02*
G01X12325Y37465D01*
G01X12404Y37799D02*
G01X12325Y37465D01*
G01X17900Y37600D02*
G01X17900Y37266D01*
G01X17900Y37600D02*
G01X18010Y37600D01*
G01X18059Y37584D01*
G01X18090Y37552D01*
G01X18106Y37520D01*
G01X18122Y37473D01*
G01X18122Y37393D01*
G01X18106Y37345D01*
G01X18090Y37314D01*
G01X18059Y37282D01*
G01X18010Y37266D01*
G01X17900Y37266D01*
G01X18435Y37489D02*
G01X18418Y37441D01*
G01X18386Y37409D01*
G01X18339Y37393D01*
G01X18322Y37393D01*
G01X18275Y37409D01*
G01X18243Y37441D01*
G01X18227Y37489D01*
G01X18227Y37504D01*
G01X18243Y37552D01*
G01X18275Y37584D01*
G01X18322Y37600D01*
G01X18339Y37600D01*
G01X18386Y37584D01*
G01X18418Y37552D01*
G01X18435Y37489D01*
G01X18435Y37409D01*
G01X18418Y37329D01*
G01X18386Y37282D01*
G01X18339Y37266D01*
G01X18306Y37266D01*
G01X18260Y37282D01*
G01X18243Y37314D01*
G01X10867Y38723D02*
G01X10828Y38761D01*
G01X10772Y38780D01*
G01X10694Y38780D01*
G01X10638Y38761D01*
G01X10600Y38723D01*
G01X10600Y38685D01*
G01X10618Y38646D01*
G01X10638Y38627D01*
G01X10676Y38608D01*
G01X10790Y38570D01*
G01X10828Y38551D01*
G01X10847Y38532D01*
G01X10867Y38494D01*
G01X10867Y38436D01*
G01X10828Y38398D01*
G01X10772Y38379D01*
G01X10694Y38379D01*
G01X10638Y38398D01*
G01X10600Y38436D01*
G01X11051Y38780D02*
G01X11051Y38456D01*
G01X11069Y38398D01*
G01X11107Y38379D01*
G01X11146Y38379D01*
G01X10993Y38646D02*
G01X11127Y38646D01*
G01X11272Y38532D02*
G01X11501Y38532D01*
G01X11501Y38570D01*
G01X11481Y38608D01*
G01X11463Y38627D01*
G01X11425Y38646D01*
G01X11367Y38646D01*
G01X11328Y38627D01*
G01X11290Y38589D01*
G01X11272Y38532D01*
G01X11272Y38494D01*
G01X11290Y38436D01*
G01X11328Y38398D01*
G01X11367Y38379D01*
G01X11425Y38379D01*
G01X11463Y38398D01*
G01X11501Y38436D01*
G01X11627Y38646D02*
G01X11627Y38246D01*
G01X11627Y38589D02*
G01X11664Y38627D01*
G01X11702Y38646D01*
G01X11760Y38646D01*
G01X11798Y38627D01*
G01X11836Y38589D01*
G01X11856Y38532D01*
G01X11856Y38494D01*
G01X11836Y38436D01*
G01X11798Y38398D01*
G01X11760Y38379D01*
G01X11702Y38379D01*
G01X11664Y38398D01*
G01X11627Y38436D01*
G01X11981Y38646D02*
G01X11981Y38246D01*
G01X11981Y38589D02*
G01X12019Y38627D01*
G01X12059Y38646D01*
G01X12115Y38646D01*
G01X12153Y38627D01*
G01X12192Y38589D01*
G01X12210Y38532D01*
G01X12210Y38494D01*
G01X12192Y38436D01*
G01X12153Y38398D01*
G01X12115Y38379D01*
G01X12059Y38379D01*
G01X12019Y38398D01*
G01X11981Y38436D01*
G01X12336Y38532D02*
G01X12565Y38532D01*
G01X12565Y38570D01*
G01X12547Y38608D01*
G01X12527Y38627D01*
G01X12489Y38646D01*
G01X12432Y38646D01*
G01X12394Y38627D01*
G01X12356Y38589D01*
G01X12336Y38532D01*
G01X12336Y38494D01*
G01X12356Y38436D01*
G01X12394Y38398D01*
G01X12432Y38379D01*
G01X12489Y38379D01*
G01X12527Y38398D01*
G01X12565Y38436D01*
G01X12692Y38646D02*
G01X12692Y38379D01*
G01X12692Y38532D02*
G01X12710Y38589D01*
G01X12750Y38627D01*
G01X12788Y38646D01*
G01X12844Y38646D01*
G01X13264Y38646D02*
G01X13264Y38379D01*
G01X13264Y38570D02*
G01X13322Y38627D01*
G01X13360Y38646D01*
G01X13418Y38646D01*
G01X13456Y38627D01*
G01X13475Y38570D01*
G01X13475Y38379D01*
G01X13475Y38570D02*
G01X13531Y38627D01*
G01X13571Y38646D01*
G01X13627Y38646D01*
G01X13665Y38627D01*
G01X13685Y38570D01*
G01X13685Y38379D01*
G01X13906Y38646D02*
G01X13868Y38627D01*
G01X13830Y38589D01*
G01X13810Y38532D01*
G01X13810Y38494D01*
G01X13830Y38436D01*
G01X13868Y38398D01*
G01X13906Y38379D01*
G01X13964Y38379D01*
G01X14002Y38398D01*
G01X14039Y38436D01*
G01X14059Y38494D01*
G01X14059Y38532D01*
G01X14039Y38589D01*
G01X14002Y38627D01*
G01X13964Y38646D01*
G01X13906Y38646D01*
G01X14243Y38780D02*
G01X14243Y38456D01*
G01X14261Y38398D01*
G01X14300Y38379D01*
G01X14338Y38379D01*
G01X14185Y38646D02*
G01X14318Y38646D01*
G01X14559Y38646D02*
G01X14521Y38627D01*
G01X14482Y38589D01*
G01X14464Y38532D01*
G01X14464Y38494D01*
G01X14482Y38436D01*
G01X14521Y38398D01*
G01X14559Y38379D01*
G01X14617Y38379D01*
G01X14655Y38398D01*
G01X14693Y38436D01*
G01X14711Y38494D01*
G01X14711Y38532D01*
G01X14693Y38589D01*
G01X14655Y38627D01*
G01X14617Y38646D01*
G01X14559Y38646D01*
G01X14838Y38646D02*
G01X14838Y38379D01*
G01X14838Y38532D02*
G01X14856Y38589D01*
G01X14894Y38627D01*
G01X14934Y38646D01*
G01X14990Y38646D01*
G01X15410Y38646D02*
G01X15410Y38379D01*
G01X15410Y38532D02*
G01X15430Y38589D01*
G01X15468Y38627D01*
G01X15506Y38646D01*
G01X15564Y38646D01*
G01X15785Y38646D02*
G01X15747Y38627D01*
G01X15709Y38589D01*
G01X15689Y38532D01*
G01X15689Y38494D01*
G01X15709Y38436D01*
G01X15747Y38398D01*
G01X15785Y38379D01*
G01X15842Y38379D01*
G01X15881Y38398D01*
G01X15918Y38436D01*
G01X15938Y38494D01*
G01X15938Y38532D01*
G01X15918Y38589D01*
G01X15881Y38627D01*
G01X15842Y38646D01*
G01X15785Y38646D01*
G01X16064Y38780D02*
G01X16064Y38379D01*
G01X16064Y38589D02*
G01X16102Y38627D01*
G01X16139Y38646D01*
G01X16197Y38646D01*
G01X16235Y38627D01*
G01X16273Y38589D01*
G01X16293Y38532D01*
G01X16293Y38494D01*
G01X16273Y38436D01*
G01X16235Y38398D01*
G01X16197Y38379D01*
G01X16139Y38379D01*
G01X16102Y38398D01*
G01X16064Y38436D01*
G01X16514Y38646D02*
G01X16476Y38627D01*
G01X16438Y38589D01*
G01X16418Y38532D01*
G01X16418Y38494D01*
G01X16438Y38436D01*
G01X16476Y38398D01*
G01X16514Y38379D01*
G01X16572Y38379D01*
G01X16610Y38398D01*
G01X16647Y38436D01*
G01X16667Y38494D01*
G01X16667Y38532D01*
G01X16647Y38589D01*
G01X16610Y38627D01*
G01X16572Y38646D01*
G01X16514Y38646D01*
G01X16850Y38780D02*
G01X16850Y38456D01*
G01X16868Y38398D01*
G01X16907Y38379D01*
G01X16946Y38379D01*
G01X16793Y38646D02*
G01X16927Y38646D01*
G01X17594Y38589D02*
G01X17556Y38627D01*
G01X17518Y38646D01*
G01X17460Y38646D01*
G01X17422Y38627D01*
G01X17385Y38589D01*
G01X17365Y38532D01*
G01X17365Y38494D01*
G01X17385Y38436D01*
G01X17422Y38398D01*
G01X17460Y38379D01*
G01X17518Y38379D01*
G01X17556Y38398D01*
G01X17594Y38436D01*
G01X17815Y38646D02*
G01X17777Y38627D01*
G01X17739Y38589D01*
G01X17721Y38532D01*
G01X17721Y38494D01*
G01X17739Y38436D01*
G01X17777Y38398D01*
G01X17815Y38379D01*
G01X17873Y38379D01*
G01X17911Y38398D01*
G01X17950Y38436D01*
G01X17968Y38494D01*
G01X17968Y38532D01*
G01X17950Y38589D01*
G01X17911Y38627D01*
G01X17873Y38646D01*
G01X17815Y38646D01*
G01X18094Y38646D02*
G01X18094Y38379D01*
G01X18094Y38570D02*
G01X18152Y38627D01*
G01X18190Y38646D01*
G01X18247Y38646D01*
G01X18285Y38627D01*
G01X18305Y38570D01*
G01X18305Y38379D01*
G01X18488Y38780D02*
G01X18488Y38456D01*
G01X18506Y38398D01*
G01X18546Y38379D01*
G01X18584Y38379D01*
G01X18431Y38646D02*
G01X18564Y38646D01*
G01X18710Y38646D02*
G01X18710Y38379D01*
G01X18710Y38532D02*
G01X18728Y38589D01*
G01X18767Y38627D01*
G01X18805Y38646D01*
G01X18863Y38646D01*
G01X19084Y38646D02*
G01X19046Y38627D01*
G01X19007Y38589D01*
G01X18989Y38532D01*
G01X18989Y38494D01*
G01X19007Y38436D01*
G01X19046Y38398D01*
G01X19084Y38379D01*
G01X19140Y38379D01*
G01X19178Y38398D01*
G01X19218Y38436D01*
G01X19236Y38494D01*
G01X19236Y38532D01*
G01X19218Y38589D01*
G01X19178Y38627D01*
G01X19140Y38646D01*
G01X19084Y38646D01*
G01X19363Y38780D02*
G01X19363Y38379D01*
G01X19489Y38780D02*
G01X19489Y38379D01*
G01X19614Y38532D02*
G01X19843Y38532D01*
G01X19843Y38570D01*
G01X19825Y38608D01*
G01X19806Y38627D01*
G01X19767Y38646D01*
G01X19710Y38646D01*
G01X19672Y38627D01*
G01X19634Y38589D01*
G01X19614Y38532D01*
G01X19614Y38494D01*
G01X19634Y38436D01*
G01X19672Y38398D01*
G01X19710Y38379D01*
G01X19767Y38379D01*
G01X19806Y38398D01*
G01X19843Y38436D01*
G01X19969Y38646D02*
G01X19969Y38379D01*
G01X19969Y38532D02*
G01X19989Y38589D01*
G01X20027Y38627D01*
G01X20064Y38646D01*
G01X20122Y38646D01*
G01X20543Y38780D02*
G01X20543Y38379D01*
G01X20543Y38589D02*
G01X20581Y38627D01*
G01X20618Y38646D01*
G01X20676Y38646D01*
G01X20714Y38627D01*
G01X20752Y38589D01*
G01X20772Y38532D01*
G01X20772Y38494D01*
G01X20752Y38436D01*
G01X20714Y38398D01*
G01X20676Y38379D01*
G01X20618Y38379D01*
G01X20581Y38398D01*
G01X20543Y38436D01*
G01X20917Y38646D02*
G01X21031Y38379D01*
G01X21146Y38646D02*
G01X21031Y38379D01*
G01X20993Y38303D01*
G01X20955Y38265D01*
G01X20917Y38246D01*
G01X20897Y38246D01*
G01X21718Y38780D02*
G01X21565Y38379D01*
G01X21718Y38780D02*
G01X21871Y38379D01*
G01X21622Y38513D02*
G01X21814Y38513D01*
G01X21997Y38646D02*
G01X22206Y38379D01*
G01X22206Y38646D02*
G01X21997Y38379D01*
G01X22332Y38532D02*
G01X22561Y38532D01*
G01X22561Y38570D01*
G01X22543Y38608D01*
G01X22523Y38627D01*
G01X22485Y38646D01*
G01X22428Y38646D01*
G01X22390Y38627D01*
G01X22352Y38589D01*
G01X22332Y38532D01*
G01X22332Y38494D01*
G01X22352Y38436D01*
G01X22390Y38398D01*
G01X22428Y38379D01*
G01X22485Y38379D01*
G01X22523Y38398D01*
G01X22561Y38436D01*
G01X22688Y38780D02*
G01X22688Y38379D01*
G01X23107Y38780D02*
G01X23107Y38379D01*
G01X23107Y38780D02*
G01X23280Y38780D01*
G01X23336Y38761D01*
G01X23356Y38742D01*
G01X23376Y38704D01*
G01X23376Y38666D01*
G01X23356Y38627D01*
G01X23336Y38608D01*
G01X23280Y38589D01*
G01X23107Y38589D02*
G01X23280Y38589D01*
G01X23336Y38570D01*
G01X23356Y38551D01*
G01X23376Y38513D01*
G01X23376Y38456D01*
G01X23356Y38417D01*
G01X23336Y38398D01*
G01X23280Y38379D01*
G01X23107Y38379D01*
G01X23502Y38646D02*
G01X23502Y38379D01*
G01X23502Y38532D02*
G01X23521Y38589D01*
G01X23559Y38627D01*
G01X23597Y38646D01*
G01X23653Y38646D01*
G01X23780Y38780D02*
G01X23798Y38761D01*
G01X23818Y38780D01*
G01X23798Y38799D01*
G01X23780Y38780D01*
G01X23798Y38646D02*
G01X23798Y38379D01*
G01X23944Y38646D02*
G01X23944Y38379D01*
G01X23944Y38570D02*
G01X24002Y38627D01*
G01X24039Y38646D01*
G01X24097Y38646D01*
G01X24135Y38627D01*
G01X24155Y38570D01*
G01X24155Y38379D01*
G01X24281Y38780D02*
G01X24281Y38379D01*
G01X24471Y38646D02*
G01X24281Y38456D01*
G01X24356Y38532D02*
G01X24490Y38379D01*
G01X24617Y38532D02*
G01X24846Y38532D01*
G01X24846Y38570D01*
G01X24827Y38608D01*
G01X24806Y38627D01*
G01X24768Y38646D01*
G01X24711Y38646D01*
G01X24673Y38627D01*
G01X24635Y38589D01*
G01X24617Y38532D01*
G01X24617Y38494D01*
G01X24635Y38436D01*
G01X24673Y38398D01*
G01X24711Y38379D01*
G01X24768Y38379D01*
G01X24806Y38398D01*
G01X24846Y38436D01*
G01X24972Y38780D02*
G01X24972Y38379D01*
G01X24972Y38589D02*
G01X25010Y38627D01*
G01X25047Y38646D01*
G01X25105Y38646D01*
G01X25143Y38627D01*
G01X25181Y38589D01*
G01X25201Y38532D01*
G01X25201Y38494D01*
G01X25181Y38436D01*
G01X25143Y38398D01*
G01X25105Y38379D01*
G01X25047Y38379D01*
G01X25010Y38398D01*
G01X24972Y38436D01*
G01X25346Y38646D02*
G01X25460Y38379D01*
G01X25575Y38646D02*
G01X25460Y38379D01*
G01X25422Y38303D01*
G01X25384Y38265D01*
G01X25346Y38246D01*
G01X25327Y38246D01*
G01X4900Y22499D02*
G01X4900Y22165D01*
G01X4900Y22499D02*
G01X5042Y22499D01*
G01X5090Y22483D01*
G01X5107Y22467D01*
G01X5123Y22435D01*
G01X5123Y22403D01*
G01X5107Y22372D01*
G01X5090Y22356D01*
G01X5042Y22340D01*
G01X4900Y22340D02*
G01X5042Y22340D01*
G01X5090Y22324D01*
G01X5107Y22308D01*
G01X5123Y22276D01*
G01X5123Y22228D01*
G01X5107Y22197D01*
G01X5090Y22181D01*
G01X5042Y22165D01*
G01X4900Y22165D01*
G01X5228Y22388D02*
G01X5228Y22228D01*
G01X5244Y22181D01*
G01X5275Y22165D01*
G01X5323Y22165D01*
G01X5355Y22181D01*
G01X5403Y22228D01*
G01X5403Y22388D02*
G01X5403Y22165D01*
G01X5682Y22388D02*
G01X5507Y22165D01*
G01X5507Y22388D02*
G01X5682Y22388D01*
G01X5507Y22165D02*
G01X5682Y22165D01*
G01X5963Y22388D02*
G01X5788Y22165D01*
G01X5788Y22388D02*
G01X5963Y22388D01*
G01X5788Y22165D02*
G01X5963Y22165D01*
G01X6242Y22388D02*
G01X6067Y22165D01*
G01X6067Y22388D02*
G01X6242Y22388D01*
G01X6067Y22165D02*
G01X6242Y22165D01*
G01X6363Y22244D02*
G01X6348Y22228D01*
G01X6363Y22213D01*
G01X6380Y22228D01*
G01X6363Y22244D01*
G01X6500Y22244D02*
G01X6484Y22228D01*
G01X6500Y22213D01*
G01X6515Y22228D01*
G01X6500Y22244D01*
G01X6636Y22244D02*
G01X6621Y22228D01*
G01X6636Y22213D01*
G01X6653Y22228D01*
G01X6636Y22244D01*
G01X2000Y24300D02*
G01X2000Y23966D01*
G01X2000Y24300D02*
G01X2111Y24300D01*
G01X2159Y24284D01*
G01X2190Y24252D01*
G01X2207Y24220D01*
G01X2223Y24173D01*
G01X2223Y24093D01*
G01X2207Y24045D01*
G01X2190Y24014D01*
G01X2159Y23982D01*
G01X2111Y23966D01*
G01X2000Y23966D01*
G01X2328Y24236D02*
G01X2359Y24252D01*
G01X2407Y24300D01*
G01X2407Y23966D01*
G01X2607Y24300D02*
G01X2559Y24284D01*
G01X2528Y24236D01*
G01X2511Y24157D01*
G01X2511Y24109D01*
G01X2528Y24029D01*
G01X2559Y23982D01*
G01X2607Y23966D01*
G01X2640Y23966D01*
G01X2686Y23982D01*
G01X2719Y24029D01*
G01X2734Y24109D01*
G01X2734Y24157D01*
G01X2719Y24236D01*
G01X2686Y24284D01*
G01X2640Y24300D01*
G01X2607Y24300D01*
G01X4999Y35199D02*
G01X4999Y34865D01*
G01X4999Y35199D02*
G01X5142Y35199D01*
G01X5190Y35183D01*
G01X5206Y35167D01*
G01X5222Y35135D01*
G01X5222Y35103D01*
G01X5206Y35072D01*
G01X5190Y35056D01*
G01X5142Y35040D01*
G01X4999Y35040D01*
G01X5110Y35040D02*
G01X5222Y34865D01*
G01X5454Y35199D02*
G01X5327Y34865D01*
G01X5454Y35199D02*
G01X5581Y34865D01*
G01X5374Y34976D02*
G01X5534Y34976D01*
G01X5686Y35199D02*
G01X5766Y34865D01*
G01X5845Y35199D02*
G01X5766Y34865D01*
G01X5845Y35199D02*
G01X5925Y34865D01*
G01X6004Y35199D02*
G01X5925Y34865D01*
G01X6354Y35088D02*
G01X6354Y34753D01*
G01X6354Y35040D02*
G01X6386Y35072D01*
G01X6418Y35088D01*
G01X6466Y35088D01*
G01X6498Y35072D01*
G01X6529Y35040D01*
G01X6545Y34992D01*
G01X6545Y34960D01*
G01X6529Y34913D01*
G01X6498Y34881D01*
G01X6466Y34865D01*
G01X6418Y34865D01*
G01X6386Y34881D01*
G01X6354Y34913D01*
G01X6730Y35088D02*
G01X6698Y35072D01*
G01X6666Y35040D01*
G01X6650Y34992D01*
G01X6650Y34960D01*
G01X6666Y34913D01*
G01X6698Y34881D01*
G01X6730Y34865D01*
G01X6778Y34865D01*
G01X6809Y34881D01*
G01X6841Y34913D01*
G01X6857Y34960D01*
G01X6857Y34992D01*
G01X6841Y35040D01*
G01X6809Y35072D01*
G01X6778Y35088D01*
G01X6730Y35088D01*
G01X6962Y35088D02*
G01X7026Y34865D01*
G01X7089Y35088D02*
G01X7026Y34865D01*
G01X7089Y35088D02*
G01X7153Y34865D01*
G01X7217Y35088D02*
G01X7153Y34865D01*
G01X7322Y34992D02*
G01X7513Y34992D01*
G01X7513Y35024D01*
G01X7497Y35056D01*
G01X7481Y35072D01*
G01X7449Y35088D01*
G01X7401Y35088D01*
G01X7369Y35072D01*
G01X7338Y35040D01*
G01X7322Y34992D01*
G01X7322Y34960D01*
G01X7338Y34913D01*
G01X7369Y34881D01*
G01X7401Y34865D01*
G01X7449Y34865D01*
G01X7481Y34881D01*
G01X7513Y34913D01*
G01X7618Y35088D02*
G01X7618Y34865D01*
G01X7618Y34992D02*
G01X7634Y35040D01*
G01X7665Y35072D01*
G01X7697Y35088D01*
G01X7745Y35088D01*
G01X4800Y36199D02*
G01X4800Y35865D01*
G01X4800Y36199D02*
G01X4927Y35865D01*
G01X5055Y36199D02*
G01X4927Y35865D01*
G01X5055Y36199D02*
G01X5055Y35865D01*
G01X5239Y36088D02*
G01X5207Y36072D01*
G01X5175Y36040D01*
G01X5160Y35992D01*
G01X5160Y35960D01*
G01X5175Y35913D01*
G01X5207Y35881D01*
G01X5239Y35865D01*
G01X5287Y35865D01*
G01X5319Y35881D01*
G01X5350Y35913D01*
G01X5366Y35960D01*
G01X5366Y35992D01*
G01X5350Y36040D01*
G01X5319Y36072D01*
G01X5287Y36088D01*
G01X5239Y36088D01*
G01X5519Y36199D02*
G01X5519Y35928D01*
G01X5535Y35881D01*
G01X5567Y35865D01*
G01X5599Y35865D01*
G01X5471Y36088D02*
G01X5583Y36088D01*
G01X5783Y36088D02*
G01X5751Y36072D01*
G01X5720Y36040D01*
G01X5704Y35992D01*
G01X5704Y35960D01*
G01X5720Y35913D01*
G01X5751Y35881D01*
G01X5783Y35865D01*
G01X5831Y35865D01*
G01X5863Y35881D01*
G01X5895Y35913D01*
G01X5910Y35960D01*
G01X5910Y35992D01*
G01X5895Y36040D01*
G01X5863Y36072D01*
G01X5831Y36088D01*
G01X5783Y36088D01*
G01X6015Y36088D02*
G01X6015Y35865D01*
G01X6015Y35992D02*
G01X6031Y36040D01*
G01X6063Y36072D01*
G01X6095Y36088D01*
G01X6143Y36088D01*
G01X6493Y36088D02*
G01X6493Y35753D01*
G01X6493Y36040D02*
G01X6525Y36072D01*
G01X6556Y36088D01*
G01X6604Y36088D01*
G01X6636Y36072D01*
G01X6668Y36040D01*
G01X6684Y35992D01*
G01X6684Y35960D01*
G01X6668Y35913D01*
G01X6636Y35881D01*
G01X6604Y35865D01*
G01X6556Y35865D01*
G01X6525Y35881D01*
G01X6493Y35913D01*
G01X6868Y36088D02*
G01X6836Y36072D01*
G01X6805Y36040D01*
G01X6789Y35992D01*
G01X6789Y35960D01*
G01X6805Y35913D01*
G01X6836Y35881D01*
G01X6868Y35865D01*
G01X6916Y35865D01*
G01X6948Y35881D01*
G01X6980Y35913D01*
G01X6995Y35960D01*
G01X6995Y35992D01*
G01X6980Y36040D01*
G01X6948Y36072D01*
G01X6916Y36088D01*
G01X6868Y36088D01*
G01X7100Y36088D02*
G01X7164Y35865D01*
G01X7228Y36088D02*
G01X7164Y35865D01*
G01X7228Y36088D02*
G01X7291Y35865D01*
G01X7355Y36088D02*
G01X7291Y35865D01*
G01X7460Y35992D02*
G01X7651Y35992D01*
G01X7651Y36024D01*
G01X7635Y36056D01*
G01X7619Y36072D01*
G01X7587Y36088D01*
G01X7540Y36088D01*
G01X7508Y36072D01*
G01X7476Y36040D01*
G01X7460Y35992D01*
G01X7460Y35960D01*
G01X7476Y35913D01*
G01X7508Y35881D01*
G01X7540Y35865D01*
G01X7587Y35865D01*
G01X7619Y35881D01*
G01X7651Y35913D01*
G01X7756Y36088D02*
G01X7756Y35865D01*
G01X7756Y35992D02*
G01X7772Y36040D01*
G01X7804Y36072D01*
G01X7835Y36088D01*
G01X7883Y36088D01*
G01X6142Y24100D02*
G01X6142Y23814D01*
G01X6000Y23957D02*
G01X6286Y23957D01*
G01X13789Y20919D02*
G01X13773Y20951D01*
G01X13741Y20983D01*
G01X13709Y20999D01*
G01X13645Y20999D01*
G01X13614Y20983D01*
G01X13582Y20951D01*
G01X13566Y20919D01*
G01X13550Y20872D01*
G01X13550Y20792D01*
G01X13566Y20744D01*
G01X13582Y20713D01*
G01X13614Y20681D01*
G01X13645Y20665D01*
G01X13709Y20665D01*
G01X13741Y20681D01*
G01X13773Y20713D01*
G01X13789Y20744D01*
G01X13789Y20792D01*
G01X13709Y20792D02*
G01X13789Y20792D01*
G01X13894Y20999D02*
G01X13894Y20665D01*
G01X13894Y20999D02*
G01X14116Y20665D01*
G01X14116Y20999D02*
G01X14116Y20665D01*
G01X14221Y20999D02*
G01X14221Y20665D01*
G01X14221Y20999D02*
G01X14333Y20999D01*
G01X14380Y20983D01*
G01X14412Y20951D01*
G01X14428Y20919D01*
G01X14444Y20872D01*
G01X14444Y20792D01*
G01X14428Y20744D01*
G01X14412Y20713D01*
G01X14380Y20681D01*
G01X14333Y20665D01*
G01X14221Y20665D01*
G01X22800Y31290D02*
G01X22800Y30957D01*
G01X22800Y31290D02*
G01X22910Y31290D01*
G01X22959Y31275D01*
G01X22990Y31242D01*
G01X23006Y31211D01*
G01X23022Y31163D01*
G01X23022Y31084D01*
G01X23006Y31036D01*
G01X22990Y31005D01*
G01X22959Y30973D01*
G01X22910Y30957D01*
G01X22800Y30957D01*
G01X23286Y31290D02*
G01X23127Y31067D01*
G01X23365Y31067D01*
G01X23286Y31290D02*
G01X23286Y30957D01*
G01X22800Y30290D02*
G01X22800Y29957D01*
G01X22800Y30290D02*
G01X22910Y30290D01*
G01X22959Y30275D01*
G01X22990Y30242D01*
G01X23006Y30211D01*
G01X23022Y30163D01*
G01X23022Y30084D01*
G01X23006Y30036D01*
G01X22990Y30005D01*
G01X22959Y29973D01*
G01X22910Y29957D01*
G01X22800Y29957D01*
G01X23318Y30290D02*
G01X23160Y30290D01*
G01X23143Y30148D01*
G01X23160Y30163D01*
G01X23206Y30180D01*
G01X23255Y30180D01*
G01X23302Y30163D01*
G01X23335Y30132D01*
G01X23350Y30084D01*
G01X23350Y30052D01*
G01X23335Y30005D01*
G01X23302Y29973D01*
G01X23255Y29957D01*
G01X23206Y29957D01*
G01X23160Y29973D01*
G01X23143Y29988D01*
G01X23127Y30019D01*
G01X22800Y22690D02*
G01X22800Y22357D01*
G01X22800Y22690D02*
G01X22910Y22690D01*
G01X22959Y22675D01*
G01X22990Y22642D01*
G01X23006Y22611D01*
G01X23022Y22563D01*
G01X23022Y22484D01*
G01X23006Y22436D01*
G01X22990Y22405D01*
G01X22959Y22373D01*
G01X22910Y22357D01*
G01X22800Y22357D01*
G01X23318Y22642D02*
G01X23302Y22675D01*
G01X23255Y22690D01*
G01X23222Y22690D01*
G01X23175Y22675D01*
G01X23143Y22627D01*
G01X23127Y22548D01*
G01X23127Y22467D01*
G01X23143Y22405D01*
G01X23175Y22373D01*
G01X23222Y22357D01*
G01X23239Y22357D01*
G01X23286Y22373D01*
G01X23318Y22405D01*
G01X23335Y22452D01*
G01X23335Y22467D01*
G01X23318Y22515D01*
G01X23286Y22548D01*
G01X23239Y22563D01*
G01X23222Y22563D01*
G01X23175Y22548D01*
G01X23143Y22515D01*
G01X23127Y22467D01*
G01X22800Y21690D02*
G01X22800Y21357D01*
G01X22800Y21690D02*
G01X22910Y21690D01*
G01X22959Y21675D01*
G01X22990Y21642D01*
G01X23006Y21611D01*
G01X23022Y21563D01*
G01X23022Y21484D01*
G01X23006Y21436D01*
G01X22990Y21405D01*
G01X22959Y21373D01*
G01X22910Y21357D01*
G01X22800Y21357D01*
G01X23350Y21690D02*
G01X23190Y21357D01*
G01X23127Y21690D02*
G01X23350Y21690D01*
G01X18500Y28300D02*
G01X18500Y27966D01*
G01X18500Y28300D02*
G01X18610Y28300D01*
G01X18659Y28284D01*
G01X18690Y28252D01*
G01X18706Y28220D01*
G01X18722Y28173D01*
G01X18722Y28093D01*
G01X18706Y28045D01*
G01X18690Y28014D01*
G01X18659Y27982D01*
G01X18610Y27966D01*
G01X18500Y27966D01*
G01X18906Y28300D02*
G01X18860Y28284D01*
G01X18843Y28252D01*
G01X18843Y28220D01*
G01X18860Y28189D01*
G01X18890Y28173D01*
G01X18955Y28157D01*
G01X19002Y28141D01*
G01X19035Y28109D01*
G01X19050Y28077D01*
G01X19050Y28029D01*
G01X19035Y27998D01*
G01X19018Y27982D01*
G01X18971Y27966D01*
G01X18906Y27966D01*
G01X18860Y27982D01*
G01X18843Y27998D01*
G01X18827Y28029D01*
G01X18827Y28077D01*
G01X18843Y28109D01*
G01X18875Y28141D01*
G01X18922Y28157D01*
G01X18986Y28173D01*
G01X19018Y28189D01*
G01X19035Y28220D01*
G01X19035Y28252D01*
G01X19018Y28284D01*
G01X18971Y28300D01*
G01X18906Y28300D01*
G01X6500Y33936D02*
G01X6500Y33602D01*
G01X6500Y33936D02*
G01X6642Y33936D01*
G01X6690Y33920D01*
G01X6707Y33904D01*
G01X6723Y33872D01*
G01X6723Y33840D01*
G01X6707Y33809D01*
G01X6690Y33793D01*
G01X6642Y33777D01*
G01X6500Y33777D01*
G01X6611Y33777D02*
G01X6723Y33602D01*
G01X7050Y33888D02*
G01X7019Y33920D01*
G01X6971Y33936D01*
G01X6907Y33936D01*
G01X6859Y33920D01*
G01X6828Y33888D01*
G01X6828Y33856D01*
G01X6844Y33825D01*
G01X6859Y33809D01*
G01X6890Y33793D01*
G01X6986Y33761D01*
G01X7019Y33745D01*
G01X7034Y33729D01*
G01X7050Y33697D01*
G01X7050Y33650D01*
G01X7019Y33618D01*
G01X6971Y33602D01*
G01X6907Y33602D01*
G01X6859Y33618D01*
G01X6828Y33650D01*
G01X7267Y33936D02*
G01X7267Y33602D01*
G01X7155Y33936D02*
G01X7378Y33936D01*
G01X7769Y34000D02*
G01X7482Y33490D01*
G01X7875Y33936D02*
G01X7875Y33602D01*
G01X7875Y33936D02*
G01X7986Y33936D01*
G01X8034Y33920D01*
G01X8065Y33888D01*
G01X8080Y33856D01*
G01X8096Y33809D01*
G01X8096Y33729D01*
G01X8080Y33681D01*
G01X8065Y33650D01*
G01X8034Y33618D01*
G01X7986Y33602D01*
G01X7875Y33602D01*
G01X8201Y33872D02*
G01X8234Y33888D01*
G01X8282Y33936D01*
G01X8282Y33602D01*
G01X8419Y33936D02*
G01X8594Y33936D01*
G01X8498Y33809D01*
G01X8546Y33809D01*
G01X8578Y33793D01*
G01X8594Y33777D01*
G01X8609Y33729D01*
G01X8609Y33697D01*
G01X8594Y33650D01*
G01X8561Y33618D01*
G01X8513Y33602D01*
G01X8465Y33602D01*
G01X8419Y33618D01*
G01X8403Y33634D01*
G01X8386Y33665D01*
G01X27864Y23136D02*
G01X27847Y23168D01*
G01X27800Y23216D01*
G01X28134Y23216D01*
G01X27800Y23321D02*
G01X28134Y23321D01*
G01X27800Y23321D02*
G01X27800Y23464D01*
G01X27815Y23511D01*
G01X27831Y23527D01*
G01X27864Y23543D01*
G01X27896Y23543D01*
G01X27927Y23527D01*
G01X27943Y23511D01*
G01X27959Y23464D01*
G01X27959Y23321D02*
G01X27959Y23464D01*
G01X27975Y23511D01*
G01X27990Y23527D01*
G01X28022Y23543D01*
G01X28071Y23543D01*
G01X28102Y23527D01*
G01X28118Y23511D01*
G01X28134Y23464D01*
G01X28134Y23321D01*
G01X27864Y24138D02*
G01X27847Y24170D01*
G01X27800Y24218D01*
G01X28134Y24218D01*
G01X27800Y24450D02*
G01X28134Y24323D01*
G01X27800Y24450D02*
G01X28134Y24577D01*
G01X28022Y24371D02*
G01X28022Y24530D01*
G01X27880Y25188D02*
G01X27864Y25188D01*
G01X27831Y25204D01*
G01X27815Y25220D01*
G01X27800Y25252D01*
G01X27800Y25316D01*
G01X27815Y25347D01*
G01X27831Y25363D01*
G01X27864Y25379D01*
G01X27896Y25379D01*
G01X27927Y25363D01*
G01X27975Y25331D01*
G01X28134Y25172D01*
G01X28134Y25395D01*
G01X27800Y25627D02*
G01X28134Y25500D01*
G01X27800Y25627D02*
G01X28134Y25755D01*
G01X28022Y25548D02*
G01X28022Y25707D01*
G01X27880Y26366D02*
G01X27864Y26366D01*
G01X27831Y26381D01*
G01X27815Y26397D01*
G01X27800Y26429D01*
G01X27800Y26493D01*
G01X27815Y26525D01*
G01X27831Y26541D01*
G01X27864Y26556D01*
G01X27896Y26556D01*
G01X27927Y26541D01*
G01X27975Y26509D01*
G01X28134Y26350D01*
G01X28134Y26572D01*
G01X27800Y26677D02*
G01X28134Y26677D01*
G01X27800Y26677D02*
G01X27800Y26821D01*
G01X27815Y26868D01*
G01X27831Y26884D01*
G01X27864Y26900D01*
G01X27896Y26900D01*
G01X27927Y26884D01*
G01X27943Y26868D01*
G01X27959Y26821D01*
G01X27959Y26677D02*
G01X27959Y26821D01*
G01X27975Y26868D01*
G01X27990Y26884D01*
G01X28022Y26900D01*
G01X28071Y26900D01*
G01X28102Y26884D01*
G01X28118Y26868D01*
G01X28134Y26821D01*
G01X28134Y26677D01*
G01X27864Y31636D02*
G01X27848Y31668D01*
G01X27800Y31716D01*
G01X28134Y31716D01*
G01X27800Y31821D02*
G01X28134Y31821D01*
G01X27800Y31821D02*
G01X27800Y31964D01*
G01X27816Y32011D01*
G01X27832Y32027D01*
G01X27864Y32043D01*
G01X27896Y32043D01*
G01X27927Y32027D01*
G01X27943Y32011D01*
G01X27959Y31964D01*
G01X27959Y31821D02*
G01X27959Y31964D01*
G01X27975Y32011D01*
G01X27991Y32027D01*
G01X28023Y32043D01*
G01X28071Y32043D01*
G01X28102Y32027D01*
G01X28118Y32011D01*
G01X28134Y31964D01*
G01X28134Y31821D01*
G01X27864Y32638D02*
G01X27848Y32670D01*
G01X27800Y32718D01*
G01X28134Y32718D01*
G01X27800Y32950D02*
G01X28134Y32823D01*
G01X27800Y32950D02*
G01X28134Y33077D01*
G01X28023Y32871D02*
G01X28023Y33030D01*
G01X27880Y33688D02*
G01X27864Y33688D01*
G01X27832Y33704D01*
G01X27816Y33720D01*
G01X27800Y33752D01*
G01X27800Y33816D01*
G01X27816Y33847D01*
G01X27832Y33863D01*
G01X27864Y33879D01*
G01X27896Y33879D01*
G01X27927Y33863D01*
G01X27975Y33831D01*
G01X28134Y33672D01*
G01X28134Y33895D01*
G01X27800Y34127D02*
G01X28134Y34000D01*
G01X27800Y34127D02*
G01X28134Y34255D01*
G01X28023Y34048D02*
G01X28023Y34207D01*
G01X27880Y34866D02*
G01X27864Y34866D01*
G01X27832Y34881D01*
G01X27816Y34897D01*
G01X27800Y34929D01*
G01X27800Y34993D01*
G01X27816Y35025D01*
G01X27832Y35041D01*
G01X27864Y35056D01*
G01X27896Y35056D01*
G01X27927Y35041D01*
G01X27975Y35009D01*
G01X28134Y34850D01*
G01X28134Y35072D01*
G01X27800Y35177D02*
G01X28134Y35177D01*
G01X27800Y35177D02*
G01X27800Y35321D01*
G01X27816Y35368D01*
G01X27832Y35384D01*
G01X27864Y35400D01*
G01X27896Y35400D01*
G01X27927Y35384D01*
G01X27943Y35368D01*
G01X27959Y35321D01*
G01X27959Y35177D02*
G01X27959Y35321D01*
G01X27975Y35368D01*
G01X27991Y35384D01*
G01X28023Y35400D01*
G01X28071Y35400D01*
G01X28102Y35384D01*
G01X28118Y35368D01*
G01X28134Y35321D01*
G01X28134Y35177D01*
G01X13039Y37719D02*
G01X13023Y37752D01*
G01X12991Y37784D01*
G01X12959Y37800D01*
G01X12895Y37800D01*
G01X12864Y37784D01*
G01X12832Y37752D01*
G01X12816Y37719D01*
G01X12800Y37673D01*
G01X12800Y37592D01*
G01X12816Y37544D01*
G01X12832Y37513D01*
G01X12864Y37482D01*
G01X12895Y37465D01*
G01X12959Y37465D01*
G01X12991Y37482D01*
G01X13023Y37513D01*
G01X13039Y37544D01*
G01X13039Y37592D01*
G01X12959Y37592D02*
G01X13039Y37592D01*
G01X13144Y37800D02*
G01X13144Y37465D01*
G01X13144Y37800D02*
G01X13366Y37465D01*
G01X13366Y37800D02*
G01X13366Y37465D01*
G01X13471Y37800D02*
G01X13471Y37465D01*
G01X13471Y37800D02*
G01X13583Y37800D01*
G01X13630Y37784D01*
G01X13662Y37752D01*
G01X13678Y37719D01*
G01X13694Y37673D01*
G01X13694Y37592D01*
G01X13678Y37544D01*
G01X13662Y37513D01*
G01X13630Y37482D01*
G01X13583Y37465D01*
G01X13471Y37465D01*
G01X16630Y35410D02*
G01X16614Y35410D01*
G01X16582Y35426D01*
G01X16566Y35442D01*
G01X16550Y35474D01*
G01X16550Y35537D01*
G01X16566Y35569D01*
G01X16582Y35585D01*
G01X16614Y35601D01*
G01X16646Y35601D01*
G01X16677Y35585D01*
G01X16725Y35553D01*
G01X16884Y35394D01*
G01X16884Y35617D01*
G01X16630Y35738D02*
G01X16614Y35738D01*
G01X16582Y35754D01*
G01X16566Y35769D01*
G01X16550Y35801D01*
G01X16550Y35865D01*
G01X16566Y35897D01*
G01X16582Y35913D01*
G01X16614Y35929D01*
G01X16646Y35929D01*
G01X16677Y35913D01*
G01X16725Y35881D01*
G01X16884Y35722D01*
G01X16884Y35944D01*
G01X16550Y36145D02*
G01X16566Y36097D01*
G01X16614Y36065D01*
G01X16693Y36049D01*
G01X16741Y36049D01*
G01X16821Y36065D01*
G01X16868Y36097D01*
G01X16884Y36145D01*
G01X16884Y36177D01*
G01X16868Y36224D01*
G01X16821Y36256D01*
G01X16741Y36272D01*
G01X16693Y36272D01*
G01X16614Y36256D01*
G01X16566Y36224D01*
G01X16550Y36177D01*
G01X16550Y36145D01*
G01X16550Y36377D02*
G01X16884Y36377D01*
G01X16550Y36377D02*
G01X16550Y36520D01*
G01X16566Y36568D01*
G01X16582Y36584D01*
G01X16614Y36600D01*
G01X16646Y36600D01*
G01X16677Y36584D01*
G01X16693Y36568D01*
G01X16709Y36520D01*
G01X16709Y36377D01*
G01X16709Y36489D02*
G01X16884Y36600D01*
G01X14614Y35615D02*
G01X14598Y35647D01*
G01X14550Y35695D01*
G01X14884Y35695D01*
G01X14550Y35895D02*
G01X14566Y35847D01*
G01X14614Y35815D01*
G01X14693Y35800D01*
G01X14741Y35800D01*
G01X14821Y35815D01*
G01X14868Y35847D01*
G01X14884Y35895D01*
G01X14884Y35927D01*
G01X14868Y35975D01*
G01X14821Y36006D01*
G01X14741Y36022D01*
G01X14693Y36022D01*
G01X14614Y36006D01*
G01X14566Y35975D01*
G01X14550Y35927D01*
G01X14550Y35895D01*
G01X14550Y36127D02*
G01X14884Y36127D01*
G01X14550Y36350D02*
G01X14773Y36127D01*
G01X14693Y36207D02*
G01X14884Y36350D01*
G01X15614Y35743D02*
G01X15598Y35775D01*
G01X15550Y35823D01*
G01X15884Y35823D01*
G01X15550Y35928D02*
G01X15884Y35928D01*
G01X15550Y36150D02*
G01X15773Y35928D01*
G01X15693Y36007D02*
G01X15884Y36150D01*
G01X5900Y25621D02*
G01X5900Y25234D01*
G01X5900Y25621D02*
G01X6065Y25621D01*
G01X6121Y25603D01*
G01X6140Y25584D01*
G01X6157Y25546D01*
G01X6157Y25492D01*
G01X6140Y25455D01*
G01X6121Y25436D01*
G01X6065Y25417D01*
G01X5900Y25417D01*
G01X6280Y25492D02*
G01X6280Y25234D01*
G01X6280Y25382D02*
G01X6298Y25436D01*
G01X6334Y25473D01*
G01X6371Y25492D01*
G01X6426Y25492D01*
G01X6640Y25492D02*
G01X6603Y25473D01*
G01X6567Y25436D01*
G01X6548Y25382D01*
G01X6548Y25344D01*
G01X6567Y25288D01*
G01X6603Y25253D01*
G01X6640Y25234D01*
G01X6696Y25234D01*
G01X6732Y25253D01*
G01X6769Y25288D01*
G01X6788Y25344D01*
G01X6788Y25382D01*
G01X6769Y25436D01*
G01X6732Y25473D01*
G01X6696Y25492D01*
G01X6640Y25492D01*
G01X7194Y25621D02*
G01X7194Y25234D01*
G01X7194Y25621D02*
G01X7340Y25234D01*
G01X7488Y25621D02*
G01X7340Y25234D01*
G01X7488Y25621D02*
G01X7488Y25234D01*
G01X7611Y25621D02*
G01X7628Y25603D01*
G01X7646Y25621D01*
G01X7628Y25640D01*
G01X7611Y25621D01*
G01X7628Y25492D02*
G01X7628Y25234D01*
G01X7990Y25436D02*
G01X7953Y25473D01*
G01X7915Y25492D01*
G01X7861Y25492D01*
G01X7823Y25473D01*
G01X7786Y25436D01*
G01X7769Y25382D01*
G01X7769Y25344D01*
G01X7786Y25288D01*
G01X7823Y25253D01*
G01X7861Y25234D01*
G01X7915Y25234D01*
G01X7953Y25253D01*
G01X7990Y25288D01*
G01X8111Y25492D02*
G01X8111Y25234D01*
G01X8111Y25382D02*
G01X8130Y25436D01*
G01X8167Y25473D01*
G01X8203Y25492D01*
G01X8259Y25492D01*
G01X8473Y25492D02*
G01X8436Y25473D01*
G01X8398Y25436D01*
G01X8380Y25382D01*
G01X8380Y25344D01*
G01X8398Y25288D01*
G01X8436Y25253D01*
G01X8473Y25234D01*
G01X8528Y25234D01*
G01X8565Y25253D01*
G01X8601Y25288D01*
G01X8621Y25344D01*
G01X8621Y25382D01*
G01X8601Y25436D01*
G01X8565Y25473D01*
G01X8528Y25492D01*
G01X8473Y25492D01*
G01X20700Y36317D02*
G01X20700Y35936D01*
G01X20700Y36317D02*
G01X20844Y35936D01*
G01X20990Y36317D02*
G01X20844Y35936D01*
G01X20990Y36317D02*
G01X20990Y35936D01*
G01X21364Y36263D02*
G01X21328Y36300D01*
G01X21275Y36317D01*
G01X21202Y36317D01*
G01X21147Y36300D01*
G01X21110Y36263D01*
G01X21110Y36227D01*
G01X21128Y36190D01*
G01X21147Y36173D01*
G01X21184Y36155D01*
G01X21293Y36117D01*
G01X21328Y36100D01*
G01X21347Y36082D01*
G01X21364Y36044D01*
G01X21364Y35990D01*
G01X21328Y35955D01*
G01X21275Y35936D01*
G01X21202Y35936D01*
G01X21147Y35955D01*
G01X21110Y35990D01*
G01X21485Y36244D02*
G01X21522Y36263D01*
G01X21576Y36317D01*
G01X21576Y35936D01*
G01X20700Y35317D02*
G01X20700Y34936D01*
G01X20700Y35317D02*
G01X20844Y34936D01*
G01X20990Y35317D02*
G01X20844Y34936D01*
G01X20990Y35317D02*
G01X20990Y34936D01*
G01X21364Y35263D02*
G01X21328Y35300D01*
G01X21275Y35317D01*
G01X21202Y35317D01*
G01X21147Y35300D01*
G01X21110Y35263D01*
G01X21110Y35227D01*
G01X21128Y35190D01*
G01X21147Y35173D01*
G01X21184Y35155D01*
G01X21293Y35117D01*
G01X21328Y35100D01*
G01X21347Y35082D01*
G01X21364Y35044D01*
G01X21364Y34990D01*
G01X21328Y34955D01*
G01X21275Y34936D01*
G01X21202Y34936D01*
G01X21147Y34955D01*
G01X21110Y34990D01*
G01X21503Y35227D02*
G01X21503Y35244D01*
G01X21522Y35282D01*
G01X21539Y35300D01*
G01X21576Y35317D01*
G01X21648Y35317D01*
G01X21685Y35300D01*
G01X21703Y35282D01*
G01X21722Y35244D01*
G01X21722Y35209D01*
G01X21703Y35173D01*
G01X21667Y35117D01*
G01X21485Y34936D01*
G01X21739Y34936D01*
G01X20700Y34317D02*
G01X20700Y33936D01*
G01X20700Y34317D02*
G01X20844Y33936D01*
G01X20990Y34317D02*
G01X20844Y33936D01*
G01X20990Y34317D02*
G01X20990Y33936D01*
G01X21364Y34263D02*
G01X21328Y34300D01*
G01X21275Y34317D01*
G01X21202Y34317D01*
G01X21147Y34300D01*
G01X21110Y34263D01*
G01X21110Y34227D01*
G01X21128Y34190D01*
G01X21147Y34173D01*
G01X21184Y34155D01*
G01X21293Y34117D01*
G01X21328Y34100D01*
G01X21347Y34082D01*
G01X21364Y34044D01*
G01X21364Y33990D01*
G01X21328Y33955D01*
G01X21275Y33936D01*
G01X21202Y33936D01*
G01X21147Y33955D01*
G01X21110Y33990D01*
G01X21522Y34317D02*
G01X21722Y34317D01*
G01X21613Y34173D01*
G01X21667Y34173D01*
G01X21703Y34155D01*
G01X21722Y34136D01*
G01X21739Y34082D01*
G01X21739Y34044D01*
G01X21722Y33990D01*
G01X21685Y33955D01*
G01X21631Y33936D01*
G01X21576Y33936D01*
G01X21522Y33955D01*
G01X21503Y33973D01*
G01X21485Y34009D01*
G01X20955Y31263D02*
G01X20918Y31300D01*
G01X20864Y31317D01*
G01X20790Y31317D01*
G01X20735Y31300D01*
G01X20700Y31263D01*
G01X20700Y31227D01*
G01X20718Y31190D01*
G01X20735Y31173D01*
G01X20772Y31155D01*
G01X20881Y31117D01*
G01X20918Y31100D01*
G01X20935Y31082D01*
G01X20955Y31044D01*
G01X20955Y30990D01*
G01X20918Y30955D01*
G01X20864Y30936D01*
G01X20790Y30936D01*
G01X20735Y30955D01*
G01X20700Y30990D01*
G01X21202Y31317D02*
G01X21202Y30936D01*
G01X21075Y31317D02*
G01X21328Y31317D01*
G01X21448Y31317D02*
G01X21448Y30936D01*
G01X21448Y31317D02*
G01X21685Y31317D01*
G01X21448Y31136D02*
G01X21594Y31136D01*
G01X21448Y30936D02*
G01X21685Y30936D01*
G01X21805Y31317D02*
G01X21805Y30936D01*
G01X21805Y31317D02*
G01X21968Y31317D01*
G01X22023Y31300D01*
G01X22042Y31282D01*
G01X22060Y31244D01*
G01X22060Y31190D01*
G01X22042Y31155D01*
G01X22023Y31136D01*
G01X21968Y31117D01*
G01X21805Y31117D01*
G01X20700Y30317D02*
G01X20700Y29936D01*
G01X20700Y30317D02*
G01X20827Y30317D01*
G01X20881Y30300D01*
G01X20918Y30263D01*
G01X20935Y30227D01*
G01X20955Y30173D01*
G01X20955Y30082D01*
G01X20935Y30027D01*
G01X20918Y29990D01*
G01X20881Y29955D01*
G01X20827Y29936D01*
G01X20700Y29936D01*
G01X21075Y30317D02*
G01X21075Y29936D01*
G01X21194Y30317D02*
G01X21194Y29936D01*
G01X21194Y30317D02*
G01X21357Y30317D01*
G01X21413Y30300D01*
G01X21431Y30282D01*
G01X21448Y30244D01*
G01X21448Y30209D01*
G01X21431Y30173D01*
G01X21413Y30155D01*
G01X21357Y30136D01*
G01X21194Y30136D01*
G01X21322Y30136D02*
G01X21448Y29936D01*
G01X24072Y30227D02*
G01X24055Y30263D01*
G01X24018Y30300D01*
G01X23981Y30317D01*
G01X23909Y30317D01*
G01X23872Y30300D01*
G01X23835Y30263D01*
G01X23818Y30227D01*
G01X23800Y30173D01*
G01X23800Y30082D01*
G01X23818Y30027D01*
G01X23835Y29990D01*
G01X23872Y29955D01*
G01X23909Y29936D01*
G01X23981Y29936D01*
G01X24018Y29955D01*
G01X24055Y29990D01*
G01X24072Y30027D01*
G01X24072Y30082D01*
G01X23981Y30082D02*
G01X24072Y30082D01*
G01X24193Y30317D02*
G01X24193Y29936D01*
G01X24193Y30317D02*
G01X24447Y29936D01*
G01X24447Y30317D02*
G01X24447Y29936D01*
G01X24567Y30317D02*
G01X24567Y29936D01*
G01X24567Y30317D02*
G01X24694Y30317D01*
G01X24748Y30300D01*
G01X24785Y30263D01*
G01X24803Y30227D01*
G01X24822Y30173D01*
G01X24822Y30082D01*
G01X24803Y30027D01*
G01X24785Y29990D01*
G01X24748Y29955D01*
G01X24694Y29936D01*
G01X24567Y29936D01*
G01X23800Y31317D02*
G01X23944Y30936D01*
G01X24090Y31317D02*
G01X23944Y30936D01*
G01X24210Y31317D02*
G01X24210Y30936D01*
G01X24210Y31317D02*
G01X24338Y31317D01*
G01X24393Y31300D01*
G01X24428Y31263D01*
G01X24447Y31227D01*
G01X24464Y31173D01*
G01X24464Y31082D01*
G01X24447Y31027D01*
G01X24428Y30990D01*
G01X24393Y30955D01*
G01X24338Y30936D01*
G01X24210Y30936D01*
G01X24585Y31317D02*
G01X24585Y30936D01*
G01X24585Y31317D02*
G01X24713Y31317D01*
G01X24767Y31300D01*
G01X24803Y31263D01*
G01X24822Y31227D01*
G01X24839Y31173D01*
G01X24839Y31082D01*
G01X24822Y31027D01*
G01X24803Y30990D01*
G01X24767Y30955D01*
G01X24713Y30936D01*
G01X24585Y30936D01*
G01X23800Y32244D02*
G01X23835Y32263D01*
G01X23890Y32317D01*
G01X23890Y31936D01*
G01X24010Y32317D02*
G01X24010Y31936D01*
G01X24010Y32317D02*
G01X24175Y32317D01*
G01X24228Y32300D01*
G01X24247Y32282D01*
G01X24264Y32244D01*
G01X24264Y32209D01*
G01X24247Y32173D01*
G01X24228Y32155D01*
G01X24175Y32136D01*
G01X24010Y32136D02*
G01X24175Y32136D01*
G01X24228Y32117D01*
G01X24247Y32100D01*
G01X24264Y32063D01*
G01X24264Y32009D01*
G01X24247Y31973D01*
G01X24228Y31955D01*
G01X24175Y31936D01*
G01X24010Y31936D01*
G01X23800Y33244D02*
G01X23835Y33263D01*
G01X23890Y33317D01*
G01X23890Y32936D01*
G01X24156Y33317D02*
G01X24010Y32936D01*
G01X24156Y33317D02*
G01X24302Y32936D01*
G01X24064Y33063D02*
G01X24247Y33063D01*
G01X23818Y34227D02*
G01X23818Y34244D01*
G01X23835Y34282D01*
G01X23855Y34300D01*
G01X23890Y34317D01*
G01X23964Y34317D01*
G01X24000Y34300D01*
G01X24018Y34282D01*
G01X24035Y34244D01*
G01X24035Y34209D01*
G01X24018Y34173D01*
G01X23981Y34117D01*
G01X23800Y33936D01*
G01X24055Y33936D01*
G01X24319Y34317D02*
G01X24175Y33936D01*
G01X24319Y34317D02*
G01X24464Y33936D01*
G01X24228Y34063D02*
G01X24410Y34063D01*
G01X23818Y35227D02*
G01X23818Y35244D01*
G01X23835Y35282D01*
G01X23855Y35300D01*
G01X23890Y35317D01*
G01X23964Y35317D01*
G01X24000Y35300D01*
G01X24018Y35282D01*
G01X24035Y35244D01*
G01X24035Y35209D01*
G01X24018Y35173D01*
G01X23981Y35117D01*
G01X23800Y34936D01*
G01X24055Y34936D01*
G01X24175Y35317D02*
G01X24175Y34936D01*
G01X24175Y35317D02*
G01X24338Y35317D01*
G01X24393Y35300D01*
G01X24410Y35282D01*
G01X24428Y35244D01*
G01X24428Y35209D01*
G01X24410Y35173D01*
G01X24393Y35155D01*
G01X24338Y35136D01*
G01X24175Y35136D02*
G01X24338Y35136D01*
G01X24393Y35117D01*
G01X24410Y35100D01*
G01X24428Y35063D01*
G01X24428Y35009D01*
G01X24410Y34973D01*
G01X24393Y34955D01*
G01X24338Y34936D01*
G01X24175Y34936D01*
G01X24072Y36227D02*
G01X24055Y36263D01*
G01X24018Y36300D01*
G01X23981Y36317D01*
G01X23909Y36317D01*
G01X23872Y36300D01*
G01X23835Y36263D01*
G01X23818Y36227D01*
G01X23800Y36173D01*
G01X23800Y36082D01*
G01X23818Y36027D01*
G01X23835Y35990D01*
G01X23872Y35955D01*
G01X23909Y35936D01*
G01X23981Y35936D01*
G01X24018Y35955D01*
G01X24055Y35990D01*
G01X24072Y36027D01*
G01X24072Y36082D01*
G01X23981Y36082D02*
G01X24072Y36082D01*
G01X24193Y36317D02*
G01X24193Y35936D01*
G01X24193Y36317D02*
G01X24447Y35936D01*
G01X24447Y36317D02*
G01X24447Y35936D01*
G01X24567Y36317D02*
G01X24567Y35936D01*
G01X24567Y36317D02*
G01X24694Y36317D01*
G01X24748Y36300D01*
G01X24785Y36263D01*
G01X24803Y36227D01*
G01X24822Y36173D01*
G01X24822Y36082D01*
G01X24803Y36027D01*
G01X24785Y35990D01*
G01X24748Y35955D01*
G01X24694Y35936D01*
G01X24567Y35936D01*
G01X23400Y37317D02*
G01X23544Y36936D01*
G01X23690Y37317D02*
G01X23544Y36936D01*
G01X23810Y37317D02*
G01X23810Y36936D01*
G01X23810Y37317D02*
G01X23956Y36936D01*
G01X24102Y37317D02*
G01X23956Y36936D01*
G01X24102Y37317D02*
G01X24102Y36936D01*
G01X24331Y37317D02*
G01X24294Y37300D01*
G01X24257Y37263D01*
G01X24239Y37227D01*
G01X24222Y37173D01*
G01X24222Y37082D01*
G01X24239Y37027D01*
G01X24257Y36990D01*
G01X24294Y36955D01*
G01X24331Y36936D01*
G01X24403Y36936D01*
G01X24439Y36955D01*
G01X24476Y36990D01*
G01X24494Y37027D01*
G01X24513Y37082D01*
G01X24513Y37173D01*
G01X24494Y37227D01*
G01X24476Y37263D01*
G01X24439Y37300D01*
G01X24403Y37317D01*
G01X24331Y37317D01*
G01X24760Y37317D02*
G01X24760Y36936D01*
G01X24632Y37317D02*
G01X24886Y37317D01*
G01X20700Y37317D02*
G01X20700Y36936D01*
G01X20700Y37317D02*
G01X20935Y37317D01*
G01X20700Y37136D02*
G01X20844Y37136D01*
G01X20700Y36936D02*
G01X20935Y36936D01*
G01X21056Y37317D02*
G01X21056Y36936D01*
G01X21056Y37317D02*
G01X21310Y36936D01*
G01X21310Y37317D02*
G01X21310Y36936D01*
G01X20700Y33317D02*
G01X20700Y32936D01*
G01X20700Y33317D02*
G01X20864Y33317D01*
G01X20918Y33300D01*
G01X20935Y33282D01*
G01X20955Y33244D01*
G01X20955Y33209D01*
G01X20935Y33173D01*
G01X20918Y33155D01*
G01X20864Y33136D01*
G01X20700Y33136D01*
G01X20827Y33136D02*
G01X20955Y32936D01*
G01X21328Y33263D02*
G01X21293Y33300D01*
G01X21238Y33317D01*
G01X21164Y33317D01*
G01X21110Y33300D01*
G01X21075Y33263D01*
G01X21075Y33227D01*
G01X21093Y33190D01*
G01X21110Y33173D01*
G01X21147Y33155D01*
G01X21256Y33117D01*
G01X21293Y33100D01*
G01X21310Y33082D01*
G01X21328Y33044D01*
G01X21328Y32990D01*
G01X21293Y32955D01*
G01X21238Y32936D01*
G01X21164Y32936D01*
G01X21110Y32955D01*
G01X21075Y32990D01*
G01X21576Y33317D02*
G01X21576Y32936D01*
G01X21448Y33317D02*
G01X21703Y33317D01*
G01X20955Y32263D02*
G01X20918Y32300D01*
G01X20864Y32317D01*
G01X20790Y32317D01*
G01X20735Y32300D01*
G01X20700Y32263D01*
G01X20700Y32227D01*
G01X20718Y32190D01*
G01X20735Y32173D01*
G01X20772Y32155D01*
G01X20881Y32117D01*
G01X20918Y32100D01*
G01X20935Y32082D01*
G01X20955Y32044D01*
G01X20955Y31990D01*
G01X20918Y31955D01*
G01X20864Y31936D01*
G01X20790Y31936D01*
G01X20735Y31955D01*
G01X20700Y31990D01*
G01X21075Y32317D02*
G01X21075Y31936D01*
G01X21075Y31936D02*
G01X21293Y31936D01*
G01X21413Y32317D02*
G01X21413Y31936D01*
G01X21413Y32317D02*
G01X21576Y32317D01*
G01X21631Y32300D01*
G01X21648Y32282D01*
G01X21667Y32244D01*
G01X21667Y32190D01*
G01X21648Y32155D01*
G01X21631Y32136D01*
G01X21576Y32117D01*
G01X21413Y32117D01*
G01X20700Y27717D02*
G01X20700Y27336D01*
G01X20700Y27717D02*
G01X20844Y27336D01*
G01X20990Y27717D02*
G01X20844Y27336D01*
G01X20990Y27717D02*
G01X20990Y27336D01*
G01X21364Y27663D02*
G01X21328Y27700D01*
G01X21275Y27717D01*
G01X21202Y27717D01*
G01X21147Y27700D01*
G01X21110Y27663D01*
G01X21110Y27627D01*
G01X21128Y27590D01*
G01X21147Y27573D01*
G01X21184Y27555D01*
G01X21293Y27517D01*
G01X21328Y27500D01*
G01X21347Y27482D01*
G01X21364Y27444D01*
G01X21364Y27390D01*
G01X21328Y27355D01*
G01X21275Y27336D01*
G01X21202Y27336D01*
G01X21147Y27355D01*
G01X21110Y27390D01*
G01X21485Y27644D02*
G01X21522Y27663D01*
G01X21576Y27717D01*
G01X21576Y27336D01*
G01X20700Y26717D02*
G01X20700Y26336D01*
G01X20700Y26717D02*
G01X20844Y26336D01*
G01X20990Y26717D02*
G01X20844Y26336D01*
G01X20990Y26717D02*
G01X20990Y26336D01*
G01X21364Y26663D02*
G01X21328Y26700D01*
G01X21275Y26717D01*
G01X21202Y26717D01*
G01X21147Y26700D01*
G01X21110Y26663D01*
G01X21110Y26627D01*
G01X21128Y26590D01*
G01X21147Y26573D01*
G01X21184Y26555D01*
G01X21293Y26517D01*
G01X21328Y26500D01*
G01X21347Y26482D01*
G01X21364Y26444D01*
G01X21364Y26390D01*
G01X21328Y26355D01*
G01X21275Y26336D01*
G01X21202Y26336D01*
G01X21147Y26355D01*
G01X21110Y26390D01*
G01X21503Y26627D02*
G01X21503Y26644D01*
G01X21522Y26682D01*
G01X21539Y26700D01*
G01X21576Y26717D01*
G01X21648Y26717D01*
G01X21685Y26700D01*
G01X21703Y26682D01*
G01X21722Y26644D01*
G01X21722Y26609D01*
G01X21703Y26573D01*
G01X21667Y26517D01*
G01X21485Y26336D01*
G01X21739Y26336D01*
G01X20700Y25717D02*
G01X20700Y25336D01*
G01X20700Y25717D02*
G01X20844Y25336D01*
G01X20990Y25717D02*
G01X20844Y25336D01*
G01X20990Y25717D02*
G01X20990Y25336D01*
G01X21364Y25663D02*
G01X21328Y25700D01*
G01X21275Y25717D01*
G01X21202Y25717D01*
G01X21147Y25700D01*
G01X21110Y25663D01*
G01X21110Y25627D01*
G01X21128Y25590D01*
G01X21147Y25573D01*
G01X21184Y25555D01*
G01X21293Y25517D01*
G01X21328Y25500D01*
G01X21347Y25482D01*
G01X21364Y25444D01*
G01X21364Y25390D01*
G01X21328Y25355D01*
G01X21275Y25336D01*
G01X21202Y25336D01*
G01X21147Y25355D01*
G01X21110Y25390D01*
G01X21522Y25717D02*
G01X21722Y25717D01*
G01X21613Y25573D01*
G01X21667Y25573D01*
G01X21703Y25555D01*
G01X21722Y25536D01*
G01X21739Y25482D01*
G01X21739Y25444D01*
G01X21722Y25390D01*
G01X21685Y25355D01*
G01X21631Y25336D01*
G01X21576Y25336D01*
G01X21522Y25355D01*
G01X21503Y25373D01*
G01X21485Y25409D01*
G01X20955Y22663D02*
G01X20918Y22700D01*
G01X20864Y22717D01*
G01X20790Y22717D01*
G01X20735Y22700D01*
G01X20700Y22663D01*
G01X20700Y22627D01*
G01X20718Y22590D01*
G01X20735Y22573D01*
G01X20772Y22555D01*
G01X20881Y22517D01*
G01X20918Y22500D01*
G01X20935Y22482D01*
G01X20955Y22444D01*
G01X20955Y22390D01*
G01X20918Y22355D01*
G01X20864Y22336D01*
G01X20790Y22336D01*
G01X20735Y22355D01*
G01X20700Y22390D01*
G01X21202Y22717D02*
G01X21202Y22336D01*
G01X21075Y22717D02*
G01X21328Y22717D01*
G01X21448Y22717D02*
G01X21448Y22336D01*
G01X21448Y22717D02*
G01X21685Y22717D01*
G01X21448Y22536D02*
G01X21594Y22536D01*
G01X21448Y22336D02*
G01X21685Y22336D01*
G01X21805Y22717D02*
G01X21805Y22336D01*
G01X21805Y22717D02*
G01X21968Y22717D01*
G01X22023Y22700D01*
G01X22042Y22682D01*
G01X22060Y22644D01*
G01X22060Y22590D01*
G01X22042Y22555D01*
G01X22023Y22536D01*
G01X21968Y22517D01*
G01X21805Y22517D01*
G01X20700Y21717D02*
G01X20700Y21336D01*
G01X20700Y21717D02*
G01X20827Y21717D01*
G01X20881Y21700D01*
G01X20918Y21663D01*
G01X20935Y21627D01*
G01X20955Y21573D01*
G01X20955Y21482D01*
G01X20935Y21427D01*
G01X20918Y21390D01*
G01X20881Y21355D01*
G01X20827Y21336D01*
G01X20700Y21336D01*
G01X21075Y21717D02*
G01X21075Y21336D01*
G01X21194Y21717D02*
G01X21194Y21336D01*
G01X21194Y21717D02*
G01X21357Y21717D01*
G01X21413Y21700D01*
G01X21431Y21682D01*
G01X21448Y21644D01*
G01X21448Y21609D01*
G01X21431Y21573D01*
G01X21413Y21555D01*
G01X21357Y21536D01*
G01X21194Y21536D01*
G01X21322Y21536D02*
G01X21448Y21336D01*
G01X24072Y21627D02*
G01X24055Y21663D01*
G01X24018Y21700D01*
G01X23981Y21717D01*
G01X23909Y21717D01*
G01X23872Y21700D01*
G01X23835Y21663D01*
G01X23818Y21627D01*
G01X23800Y21573D01*
G01X23800Y21482D01*
G01X23818Y21427D01*
G01X23835Y21390D01*
G01X23872Y21355D01*
G01X23909Y21336D01*
G01X23981Y21336D01*
G01X24018Y21355D01*
G01X24055Y21390D01*
G01X24072Y21427D01*
G01X24072Y21482D01*
G01X23981Y21482D02*
G01X24072Y21482D01*
G01X24193Y21717D02*
G01X24193Y21336D01*
G01X24193Y21717D02*
G01X24447Y21336D01*
G01X24447Y21717D02*
G01X24447Y21336D01*
G01X24567Y21717D02*
G01X24567Y21336D01*
G01X24567Y21717D02*
G01X24694Y21717D01*
G01X24748Y21700D01*
G01X24785Y21663D01*
G01X24803Y21627D01*
G01X24822Y21573D01*
G01X24822Y21482D01*
G01X24803Y21427D01*
G01X24785Y21390D01*
G01X24748Y21355D01*
G01X24694Y21336D01*
G01X24567Y21336D01*
G01X23800Y22717D02*
G01X23944Y22336D01*
G01X24090Y22717D02*
G01X23944Y22336D01*
G01X24210Y22717D02*
G01X24210Y22336D01*
G01X24210Y22717D02*
G01X24338Y22717D01*
G01X24393Y22700D01*
G01X24428Y22663D01*
G01X24447Y22627D01*
G01X24464Y22573D01*
G01X24464Y22482D01*
G01X24447Y22427D01*
G01X24428Y22390D01*
G01X24393Y22355D01*
G01X24338Y22336D01*
G01X24210Y22336D01*
G01X24585Y22717D02*
G01X24585Y22336D01*
G01X24585Y22717D02*
G01X24713Y22717D01*
G01X24767Y22700D01*
G01X24803Y22663D01*
G01X24822Y22627D01*
G01X24839Y22573D01*
G01X24839Y22482D01*
G01X24822Y22427D01*
G01X24803Y22390D01*
G01X24767Y22355D01*
G01X24713Y22336D01*
G01X24585Y22336D01*
G01X23800Y23644D02*
G01X23835Y23663D01*
G01X23890Y23717D01*
G01X23890Y23336D01*
G01X24010Y23717D02*
G01X24010Y23336D01*
G01X24010Y23717D02*
G01X24175Y23717D01*
G01X24228Y23700D01*
G01X24247Y23682D01*
G01X24264Y23644D01*
G01X24264Y23609D01*
G01X24247Y23573D01*
G01X24228Y23555D01*
G01X24175Y23536D01*
G01X24010Y23536D02*
G01X24175Y23536D01*
G01X24228Y23517D01*
G01X24247Y23500D01*
G01X24264Y23463D01*
G01X24264Y23409D01*
G01X24247Y23373D01*
G01X24228Y23355D01*
G01X24175Y23336D01*
G01X24010Y23336D01*
G01X23800Y24644D02*
G01X23835Y24663D01*
G01X23890Y24717D01*
G01X23890Y24336D01*
G01X24156Y24717D02*
G01X24010Y24336D01*
G01X24156Y24717D02*
G01X24302Y24336D01*
G01X24064Y24463D02*
G01X24247Y24463D01*
G01X23818Y25627D02*
G01X23818Y25644D01*
G01X23835Y25682D01*
G01X23855Y25700D01*
G01X23890Y25717D01*
G01X23964Y25717D01*
G01X24000Y25700D01*
G01X24018Y25682D01*
G01X24035Y25644D01*
G01X24035Y25609D01*
G01X24018Y25573D01*
G01X23981Y25517D01*
G01X23800Y25336D01*
G01X24055Y25336D01*
G01X24319Y25717D02*
G01X24175Y25336D01*
G01X24319Y25717D02*
G01X24464Y25336D01*
G01X24228Y25463D02*
G01X24410Y25463D01*
G01X23818Y26627D02*
G01X23818Y26644D01*
G01X23835Y26682D01*
G01X23855Y26700D01*
G01X23890Y26717D01*
G01X23964Y26717D01*
G01X24000Y26700D01*
G01X24018Y26682D01*
G01X24035Y26644D01*
G01X24035Y26609D01*
G01X24018Y26573D01*
G01X23981Y26517D01*
G01X23800Y26336D01*
G01X24055Y26336D01*
G01X24175Y26717D02*
G01X24175Y26336D01*
G01X24175Y26717D02*
G01X24338Y26717D01*
G01X24393Y26700D01*
G01X24410Y26682D01*
G01X24428Y26644D01*
G01X24428Y26609D01*
G01X24410Y26573D01*
G01X24393Y26555D01*
G01X24338Y26536D01*
G01X24175Y26536D02*
G01X24338Y26536D01*
G01X24393Y26517D01*
G01X24410Y26500D01*
G01X24428Y26463D01*
G01X24428Y26409D01*
G01X24410Y26373D01*
G01X24393Y26355D01*
G01X24338Y26336D01*
G01X24175Y26336D01*
G01X24072Y27627D02*
G01X24055Y27663D01*
G01X24018Y27700D01*
G01X23981Y27717D01*
G01X23909Y27717D01*
G01X23872Y27700D01*
G01X23835Y27663D01*
G01X23818Y27627D01*
G01X23800Y27573D01*
G01X23800Y27482D01*
G01X23818Y27427D01*
G01X23835Y27390D01*
G01X23872Y27355D01*
G01X23909Y27336D01*
G01X23981Y27336D01*
G01X24018Y27355D01*
G01X24055Y27390D01*
G01X24072Y27427D01*
G01X24072Y27482D01*
G01X23981Y27482D02*
G01X24072Y27482D01*
G01X24193Y27717D02*
G01X24193Y27336D01*
G01X24193Y27717D02*
G01X24447Y27336D01*
G01X24447Y27717D02*
G01X24447Y27336D01*
G01X24567Y27717D02*
G01X24567Y27336D01*
G01X24567Y27717D02*
G01X24694Y27717D01*
G01X24748Y27700D01*
G01X24785Y27663D01*
G01X24803Y27627D01*
G01X24822Y27573D01*
G01X24822Y27482D01*
G01X24803Y27427D01*
G01X24785Y27390D01*
G01X24748Y27355D01*
G01X24694Y27336D01*
G01X24567Y27336D01*
G01X23400Y28717D02*
G01X23544Y28336D01*
G01X23690Y28717D02*
G01X23544Y28336D01*
G01X23810Y28717D02*
G01X23810Y28336D01*
G01X23810Y28717D02*
G01X23956Y28336D01*
G01X24102Y28717D02*
G01X23956Y28336D01*
G01X24102Y28717D02*
G01X24102Y28336D01*
G01X24331Y28717D02*
G01X24294Y28700D01*
G01X24257Y28663D01*
G01X24239Y28627D01*
G01X24222Y28573D01*
G01X24222Y28482D01*
G01X24239Y28427D01*
G01X24257Y28390D01*
G01X24294Y28355D01*
G01X24331Y28336D01*
G01X24403Y28336D01*
G01X24439Y28355D01*
G01X24476Y28390D01*
G01X24494Y28427D01*
G01X24513Y28482D01*
G01X24513Y28573D01*
G01X24494Y28627D01*
G01X24476Y28663D01*
G01X24439Y28700D01*
G01X24403Y28717D01*
G01X24331Y28717D01*
G01X24760Y28717D02*
G01X24760Y28336D01*
G01X24632Y28717D02*
G01X24886Y28717D01*
G01X20700Y28717D02*
G01X20700Y28336D01*
G01X20700Y28717D02*
G01X20935Y28717D01*
G01X20700Y28536D02*
G01X20844Y28536D01*
G01X20700Y28336D02*
G01X20935Y28336D01*
G01X21056Y28717D02*
G01X21056Y28336D01*
G01X21056Y28717D02*
G01X21310Y28336D01*
G01X21310Y28717D02*
G01X21310Y28336D01*
G01X20700Y24717D02*
G01X20700Y24336D01*
G01X20700Y24717D02*
G01X20864Y24717D01*
G01X20918Y24700D01*
G01X20935Y24682D01*
G01X20955Y24644D01*
G01X20955Y24609D01*
G01X20935Y24573D01*
G01X20918Y24555D01*
G01X20864Y24536D01*
G01X20700Y24536D01*
G01X20827Y24536D02*
G01X20955Y24336D01*
G01X21328Y24663D02*
G01X21293Y24700D01*
G01X21238Y24717D01*
G01X21164Y24717D01*
G01X21110Y24700D01*
G01X21075Y24663D01*
G01X21075Y24627D01*
G01X21093Y24590D01*
G01X21110Y24573D01*
G01X21147Y24555D01*
G01X21256Y24517D01*
G01X21293Y24500D01*
G01X21310Y24482D01*
G01X21328Y24444D01*
G01X21328Y24390D01*
G01X21293Y24355D01*
G01X21238Y24336D01*
G01X21164Y24336D01*
G01X21110Y24355D01*
G01X21075Y24390D01*
G01X21576Y24717D02*
G01X21576Y24336D01*
G01X21448Y24717D02*
G01X21703Y24717D01*
G01X20955Y23663D02*
G01X20918Y23700D01*
G01X20864Y23717D01*
G01X20790Y23717D01*
G01X20735Y23700D01*
G01X20700Y23663D01*
G01X20700Y23627D01*
G01X20718Y23590D01*
G01X20735Y23573D01*
G01X20772Y23555D01*
G01X20881Y23517D01*
G01X20918Y23500D01*
G01X20935Y23482D01*
G01X20955Y23444D01*
G01X20955Y23390D01*
G01X20918Y23355D01*
G01X20864Y23336D01*
G01X20790Y23336D01*
G01X20735Y23355D01*
G01X20700Y23390D01*
G01X21075Y23717D02*
G01X21075Y23336D01*
G01X21075Y23336D02*
G01X21293Y23336D01*
G01X21413Y23717D02*
G01X21413Y23336D01*
G01X21413Y23717D02*
G01X21576Y23717D01*
G01X21631Y23700D01*
G01X21648Y23682D01*
G01X21667Y23644D01*
G01X21667Y23590D01*
G01X21648Y23555D01*
G01X21631Y23536D01*
G01X21576Y23517D01*
G01X21413Y23517D01*
G01X13300Y33000D02*
G01X13514Y32436D01*
G01X13728Y33000D02*
G01X13514Y32436D01*
G01X14309Y32865D02*
G01X14281Y32919D01*
G01X14228Y32973D01*
G01X14175Y33000D01*
G01X14068Y33000D01*
G01X14014Y32973D01*
G01X13960Y32919D01*
G01X13932Y32865D01*
G01X13906Y32784D01*
G01X13906Y32651D01*
G01X13932Y32571D01*
G01X13960Y32517D01*
G01X14014Y32463D01*
G01X14068Y32436D01*
G01X14175Y32436D01*
G01X14228Y32463D01*
G01X14281Y32517D01*
G01X14309Y32571D01*
G01X14889Y32865D02*
G01X14861Y32919D01*
G01X14809Y32973D01*
G01X14755Y33000D01*
G01X14647Y33000D01*
G01X14593Y32973D01*
G01X14539Y32919D01*
G01X14513Y32865D01*
G01X14485Y32784D01*
G01X14485Y32651D01*
G01X14513Y32571D01*
G01X14539Y32517D01*
G01X14593Y32463D01*
G01X14647Y32436D01*
G01X14755Y32436D01*
G01X14809Y32463D01*
G01X14861Y32517D01*
G01X14889Y32571D01*
G01X15077Y27078D02*
G01X15642Y27078D01*
G01X15077Y27078D02*
G01X15642Y27292D01*
G01X15077Y27507D02*
G01X15642Y27292D01*
G01X15077Y27507D02*
G01X15642Y27507D01*
G01X15077Y27684D02*
G01X15642Y27684D01*
G01X15077Y27684D02*
G01X15077Y27926D01*
G01X15105Y28007D01*
G01X15131Y28034D01*
G01X15185Y28059D01*
G01X15265Y28059D01*
G01X15318Y28034D01*
G01X15346Y28007D01*
G01X15372Y27926D01*
G01X15372Y27684D01*
G01X15077Y28238D02*
G01X15481Y28238D01*
G01X15560Y28263D01*
G01X15614Y28317D01*
G01X15642Y28398D01*
G01X15642Y28452D01*
G01X15614Y28532D01*
G01X15560Y28586D01*
G01X15481Y28613D01*
G01X15077Y28613D01*
G01X15400Y28790D02*
G01X15400Y29273D01*
G01X15157Y29773D02*
G01X15105Y29746D01*
G01X15077Y29665D01*
G01X15077Y29611D01*
G01X15105Y29530D01*
G01X15185Y29478D01*
G01X15318Y29451D01*
G01X15453Y29451D01*
G01X15560Y29478D01*
G01X15614Y29530D01*
G01X15642Y29611D01*
G01X15642Y29638D01*
G01X15614Y29719D01*
G01X15560Y29773D01*
G01X15481Y29800D01*
G01X15453Y29800D01*
G01X15372Y29773D01*
G01X15318Y29719D01*
G01X15293Y29638D01*
G01X15293Y29611D01*
G01X15318Y29530D01*
G01X15372Y29478D01*
G01X15453Y29451D01*
G01X15077Y30138D02*
G01X15105Y30057D01*
G01X15185Y30003D01*
G01X15318Y29977D01*
G01X15400Y29977D01*
G01X15534Y30003D01*
G01X15614Y30057D01*
G01X15642Y30138D01*
G01X15642Y30192D01*
G01X15614Y30271D01*
G01X15534Y30326D01*
G01X15400Y30353D01*
G01X15318Y30353D01*
G01X15185Y30326D01*
G01X15105Y30271D01*
G01X15077Y30192D01*
G01X15077Y30138D01*
G01X15077Y30852D02*
G01X15077Y30584D01*
G01X15318Y30557D01*
G01X15293Y30584D01*
G01X15265Y30663D01*
G01X15265Y30744D01*
G01X15293Y30825D01*
G01X15346Y30878D01*
G01X15427Y30905D01*
G01X15481Y30905D01*
G01X15560Y30878D01*
G01X15614Y30825D01*
G01X15642Y30744D01*
G01X15642Y30663D01*
G01X15614Y30584D01*
G01X15588Y30557D01*
G01X15534Y30530D01*
G01X15077Y31244D02*
G01X15105Y31163D01*
G01X15185Y31109D01*
G01X15318Y31082D01*
G01X15400Y31082D01*
G01X15534Y31109D01*
G01X15614Y31163D01*
G01X15642Y31244D01*
G01X15642Y31298D01*
G01X15614Y31378D01*
G01X15534Y31432D01*
G01X15400Y31459D01*
G01X15318Y31459D01*
G01X15185Y31432D01*
G01X15105Y31378D01*
G01X15077Y31298D01*
G01X15077Y31244D01*
G54D14*
G01X9126Y34946D02*
G01X9344Y34946D01*
G01X9384Y34932D01*
G01X9398Y34919D01*
G01X9413Y34892D01*
G01X9413Y34865D01*
G01X9398Y34836D01*
G01X9384Y34823D01*
G01X9344Y34809D01*
G01X9317Y34809D01*
G01X9180Y35036D02*
G01X9167Y35063D01*
G01X9126Y35105D01*
G01X9413Y35105D01*
G01X9194Y35207D02*
G01X9180Y35207D01*
G01X9153Y35221D01*
G01X9140Y35234D01*
G01X9126Y35263D01*
G01X9126Y35317D01*
G01X9140Y35344D01*
G01X9153Y35357D01*
G01X9180Y35371D01*
G01X9207Y35371D01*
G01X9234Y35357D01*
G01X9276Y35330D01*
G01X9413Y35194D01*
G01X9413Y35384D01*
G01X9126Y35836D02*
G01X9344Y35836D01*
G01X9384Y35823D01*
G01X9398Y35809D01*
G01X9413Y35782D01*
G01X9413Y35755D01*
G01X9398Y35727D01*
G01X9384Y35713D01*
G01X9344Y35700D01*
G01X9317Y35700D01*
G01X9194Y35940D02*
G01X9180Y35940D01*
G01X9153Y35954D01*
G01X9140Y35967D01*
G01X9126Y35994D01*
G01X9126Y36048D01*
G01X9140Y36076D01*
G01X9153Y36090D01*
G01X9180Y36104D01*
G01X9207Y36104D01*
G01X9234Y36090D01*
G01X9276Y36063D01*
G01X9413Y35926D01*
G01X9413Y36117D01*
G01X9126Y36234D02*
G01X9126Y36384D01*
G01X9234Y36303D01*
G01X9234Y36344D01*
G01X9248Y36371D01*
G01X9263Y36384D01*
G01X9303Y36398D01*
G01X9330Y36398D01*
G01X9371Y36384D01*
G01X9398Y36357D01*
G01X9413Y36315D01*
G01X9413Y36275D01*
G01X9398Y36234D01*
G01X9384Y36221D01*
G01X9357Y36207D01*
G54D10*
G75*
G01X12610Y35884D02*
G03X12627Y35884I8J-985D01*
G01*
G75*
G01X22085Y35806D02*
G02X22006Y35924I19J98D01*
G01*
G75*
G01X22793Y35924D02*
G02X22714Y35806I-98J-20D01*
G01*
G75*
G01X22793Y36475D02*
G03X22714Y36593I-98J20D01*
G01*
G75*
G01X22085Y36593D02*
G03X22006Y36475I19J-98D01*
G01*
G75*
G01X22085Y34806D02*
G02X22006Y34924I19J98D01*
G01*
G75*
G01X22793Y34924D02*
G02X22714Y34806I-98J-20D01*
G01*
G75*
G01X22793Y35475D02*
G03X22714Y35593I-98J20D01*
G01*
G75*
G01X22085Y35593D02*
G03X22006Y35475I19J-98D01*
G01*
G75*
G01X22085Y33806D02*
G02X22006Y33924I19J98D01*
G01*
G75*
G01X22793Y33924D02*
G02X22714Y33806I-98J-20D01*
G01*
G75*
G01X22793Y34475D02*
G03X22714Y34593I-98J20D01*
G01*
G75*
G01X22085Y34593D02*
G03X22006Y34475I19J-98D01*
G01*
G75*
G01X22085Y27206D02*
G02X22006Y27324I19J98D01*
G01*
G75*
G01X22793Y27324D02*
G02X22714Y27206I-98J-20D01*
G01*
G75*
G01X22793Y27875D02*
G03X22714Y27993I-98J20D01*
G01*
G75*
G01X22085Y27993D02*
G03X22006Y27875I19J-98D01*
G01*
G75*
G01X22085Y26206D02*
G02X22006Y26324I19J98D01*
G01*
G75*
G01X22793Y26324D02*
G02X22714Y26206I-98J-20D01*
G01*
G75*
G01X22793Y26875D02*
G03X22714Y26993I-98J20D01*
G01*
G75*
G01X22085Y26993D02*
G03X22006Y26875I19J-98D01*
G01*
G75*
G01X22085Y25206D02*
G02X22006Y25324I19J98D01*
G01*
G75*
G01X22793Y25324D02*
G02X22714Y25206I-98J-20D01*
G01*
G75*
G01X22793Y25875D02*
G03X22714Y25993I-98J20D01*
G01*
G75*
G01X22085Y25993D02*
G03X22006Y25875I19J-98D01*
G01*
G75*
G01X17550Y36750D02*
G02X17550Y35250I699J-750D01*
G01*
G75*
G01X8100Y22300D02*
G03X8100Y22300I-2300J0D01*
G01*
G36*
G01X13339Y35559D02*
G01X13339Y34319D01*
G01X13369Y34290D01*
G01X13469Y34390D01*
G01X13469Y34509D01*
G01X13579Y34619D01*
G01X13579Y34885D01*
G01X13593Y34900D01*
G01X13569Y34924D01*
G01X13569Y35119D01*
G01X13559Y35130D01*
G01X13339Y35559D01*
G37*

M00*
M02*