G04 ---------------------------- Layer name :BOTTOM SOLDER LAYER*
G04 easyEDA 0.1*
G04 Scale: 100 percent, Rotated: No, Reflected: No *
G04 Dimensions in inches *
G04 leading zeros omitted , absolute positions ,2 integer and 4 * 
%FSLAX24Y24*%
%MOIN*%
G90*
G70D02*

%ADD11C,0.088000*%
%ADD13C,0.073000*%
%ADD15C,0.078000*%
%ADD17R,0.088000X0.088000*%
%ADD19C,0.165480*%
%ADD21C,0.244220*%

%LPD*%
G54D11*
G01X12600Y31700D02*
G01X12600Y31700D01*
G01X12600Y30700D02*
G01X12600Y30700D01*
G01X12600Y29700D02*
G01X12600Y29700D01*
G01X12600Y28700D02*
G01X12600Y28700D01*
G01X12600Y27700D02*
G01X12600Y27700D01*
G01X12600Y26700D02*
G01X12600Y26700D01*
G01X12600Y25700D02*
G01X12600Y25700D01*
G54D13*
G01X13000Y34900D03*
G01X12211Y34900D03*
G54D15*
G01X9000Y33800D03*
G01X19400Y28100D03*
G01X3100Y24100D03*
G01X18800Y37400D03*
G01X14100Y25700D03*
G01X14100Y26700D03*
G01X14100Y27700D03*
G01X14100Y28700D03*
G01X22400Y31100D03*
G01X22400Y30100D03*
G01X22400Y22500D03*
G01X22400Y21500D03*
G54D17*
G01X12100Y36700D03*
G54D11*
G01X13100Y36700D03*
G54D17*
G01X12700Y20800D03*
G54D11*
G01X12700Y21800D03*
G01X12700Y22800D03*
G54D17*
G01X16800Y20800D03*
G54D11*
G01X16800Y21800D03*
G01X16800Y22800D03*
G54D17*
G01X18300Y20800D03*
G54D11*
G01X18300Y21800D03*
G01X18300Y22800D03*
G01X16700Y34500D03*
G01X16700Y37500D03*
G01X5800Y21019D03*
G01X5800Y23580D03*
G01X14700Y34500D03*
G01X14700Y37500D03*
G01X15700Y37500D03*
G01X15700Y34500D03*
G54D17*
G01X11200Y20800D03*
G54D11*
G01X11200Y21800D03*
G01X11200Y22800D03*
G54D17*
G01X9700Y20800D03*
G54D11*
G01X9700Y21800D03*
G01X9700Y22800D03*
G01X4100Y36500D03*
G01X4100Y35500D03*
G01X4100Y34500D03*
G01X4100Y33500D03*
G01X4100Y32500D03*
G01X4100Y31500D03*
G01X4100Y30500D03*
G01X4100Y29500D03*
G01X4100Y28500D03*
G01X4100Y27500D03*
G01X4100Y26500D03*
G01X4100Y25500D03*
G01X10100Y25500D03*
G01X10100Y26500D03*
G01X10100Y27500D03*
G01X10100Y28500D03*
G01X10100Y29500D03*
G01X10100Y30500D03*
G01X10100Y31500D03*
G01X10100Y32500D03*
G01X10100Y33500D03*
G01X10100Y34500D03*
G01X10100Y35500D03*
G01X10100Y36500D03*
G54D17*
G01X27000Y32100D03*
G54D11*
G01X27000Y33100D03*
G01X27000Y34100D03*
G01X27000Y35100D03*
G54D17*
G01X27000Y23500D03*
G54D11*
G01X27000Y24500D03*
G01X27000Y25500D03*
G01X27000Y26500D03*
G54D17*
G01X2200Y29500D03*
G54D11*
G01X2200Y28500D03*
G01X2200Y27500D03*
G01X2200Y26500D03*
G01X25250Y35100D03*
G01X25250Y36100D03*
G01X25250Y37100D03*
G01X25250Y34100D03*
G01X25250Y33100D03*
G01X25250Y32100D03*
G01X25250Y31100D03*
G01X25250Y30100D03*
G01X20250Y30100D03*
G01X20250Y31100D03*
G01X20250Y32100D03*
G01X20250Y33100D03*
G01X20250Y34100D03*
G01X20250Y35100D03*
G01X20250Y36100D03*
G01X20250Y37100D03*
G01X25250Y26500D03*
G01X25250Y27500D03*
G01X25250Y28500D03*
G01X25250Y25500D03*
G01X25250Y24500D03*
G01X25250Y23500D03*
G01X25250Y22500D03*
G01X25250Y21500D03*
G01X20250Y21500D03*
G01X20250Y22500D03*
G01X20250Y23500D03*
G01X20250Y24500D03*
G01X20250Y25500D03*
G01X20250Y26500D03*
G01X20250Y27500D03*
G01X20250Y28500D03*
G54D17*
G01X12600Y32700D03*
G54D19*
G01X17100Y32200D03*
G01X17100Y26200D03*
G54D17*
G01X18800Y36000D03*
G54D11*
G01X17800Y36000D03*
G54D17*
G01X27000Y28800D03*
G54D11*
G01X27000Y29800D03*
G54D17*
G01X15300Y20800D03*
G54D11*
G01X15300Y21800D03*
G01X15300Y22800D03*
G54D17*
G01X2200Y34500D03*
G54D11*
G01X2200Y33500D03*
G01X2200Y32500D03*
G01X2200Y31500D03*
G54D21*
G01X1575Y37625D03*
G01X27952Y37625D03*
G01X27952Y21090D03*
G01X1575Y21090D03*

M00*
M02*